<svg width="16" height="16" viewBox="0 0 16 16" fill="none" xmlns="http://www.w3.org/2000/svg">
<g id="refresh">
<rect width="16" height="16" rx="4" fill="black" fill-opacity="0.2"/>
<path id="Vector" d="M12.5 12.5C12.3674 12.5 12.2402 12.4473 12.1464 12.3536C12.0527 12.2598 12 12.1326 12 12V10H10C9.86739 10 9.74021 9.94732 9.64645 9.85355C9.55268 9.75979 9.5 9.63261 9.5 9.5C9.5 9.36739 9.55268 9.24021 9.64645 9.14645C9.74021 9.05268 9.86739 9 10 9H12.5C12.6326 9 12.7598 9.05268 12.8536 9.14645C12.9473 9.24021 13 9.36739 13 9.5V12C13 12.1326 12.9473 12.2598 12.8536 12.3536C12.7598 12.4473 12.6326 12.5 12.5 12.5ZM6 7H3.5C3.36739 7 3.24021 6.94732 3.14645 6.85355C3.05268 6.75979 3 6.63261 3 6.5V4C3 3.86739 3.05268 3.74021 3.14645 3.64645C3.24021 3.55268 3.36739 3.5 3.5 3.5C3.63261 3.5 3.75979 3.55268 3.85355 3.64645C3.94732 3.74021 4 3.86739 4 4V6H6C6.13261 6 6.25979 6.05268 6.35355 6.14645C6.44732 6.24021 6.5 6.36739 6.5 6.5C6.5 6.63261 6.44732 6.75979 6.35355 6.85355C6.25979 6.94732 6.13261 7 6 7Z" fill="white"/>
<path id="Vector_2" d="M8.00036 12.9999C6.77022 13.0001 5.58317 12.5469 4.66625 11.7268C3.74934 10.9068 3.16691 9.77745 3.03036 8.55492C3.02314 8.48926 3.02892 8.42282 3.04737 8.35939C3.06583 8.29596 3.09659 8.23679 3.13792 8.18526C3.22137 8.08117 3.34275 8.0145 3.47536 7.99992C3.60797 7.98533 3.74094 8.02402 3.84502 8.10747C3.9491 8.19093 4.01577 8.31231 4.03036 8.44492C4.12919 9.34627 4.53133 10.1873 5.17086 10.8301C5.81039 11.4729 6.64934 11.8794 7.55017 11.9828C8.45101 12.0863 9.36026 11.8806 10.1289 11.3995C10.8974 10.9184 11.4798 10.1904 11.7804 9.33492C11.7991 9.26916 11.8311 9.20794 11.8745 9.15505C11.9178 9.10216 11.9716 9.05872 12.0324 9.02743C12.0932 8.99613 12.1597 8.97764 12.228 8.97309C12.2962 8.96855 12.3646 8.97804 12.4291 9.001C12.4935 9.02396 12.5525 9.05988 12.6025 9.10655C12.6524 9.15323 12.6923 9.20966 12.7196 9.27235C12.7469 9.33505 12.7611 9.40268 12.7612 9.47106C12.7613 9.53944 12.7474 9.60712 12.7204 9.66992C12.3748 10.6451 11.7353 11.4891 10.8899 12.0855C10.0445 12.6819 9.03495 13.0014 8.00036 12.9999ZM12.4704 7.99992C12.3468 8.00067 12.2272 7.9556 12.1349 7.87343C12.0426 7.79125 11.984 7.67778 11.9704 7.55492C11.8671 6.65788 11.4634 5.82217 10.8249 5.18372C10.1863 4.54527 9.35058 4.14164 8.45353 4.03849C7.55649 3.93534 6.65093 4.13874 5.88416 4.6156C5.11739 5.09246 4.53452 5.81473 4.23036 6.66492C4.21161 6.73068 4.17958 6.7919 4.13623 6.84479C4.09289 6.89768 4.03915 6.94111 3.97835 6.97241C3.91755 7.00371 3.85098 7.0222 3.78275 7.02674C3.71452 7.03129 3.64608 7.02179 3.58166 6.99883C3.51725 6.97588 3.45823 6.93995 3.40825 6.89328C3.35827 6.84661 3.3184 6.79018 3.2911 6.72748C3.26379 6.66479 3.24964 6.59716 3.24951 6.52878C3.24939 6.4604 3.26329 6.39271 3.29036 6.32992C3.66682 5.26195 4.39465 4.35341 5.35473 3.75297C6.31481 3.15254 7.45027 2.89578 8.57528 3.02471C9.70029 3.15365 10.7482 3.66065 11.5475 4.46273C12.3469 5.26481 12.8503 6.31447 12.9754 7.43992C12.9894 7.5711 12.9511 7.70252 12.8686 7.80554C12.7862 7.90856 12.6664 7.97484 12.5354 7.98992L12.4704 7.99992Z" fill="white"/>
</g>
</svg>
