<svg width="12" height="13" viewBox="0 0 12 13" fill="none" xmlns="http://www.w3.org/2000/svg">
<path fill-rule="evenodd" clip-rule="evenodd" d="M9.55016 7.09991C9.45841 7.64695 9.24329 8.15216 8.93439 8.58596L9.79187 9.44344C10.308 8.77949 10.6536 7.97639 10.7629 7.09991H9.55016ZM8.08588 9.4345C7.6521 9.74341 7.14692 9.95854 6.5999 10.0503V11.2629C7.47634 11.1536 8.2794 10.808 8.94333 10.292L8.08588 9.4345ZM5.3999 10.0503C4.85294 9.95855 4.34779 9.74345 3.91405 9.43458L3.05667 10.292C3.72055 10.808 4.52354 11.1536 5.3999 11.2629V10.0503ZM3.0655 8.58607C2.75655 8.15225 2.5414 7.647 2.44965 7.09991H1.23713C1.3464 7.9764 1.692 8.7795 2.20813 9.44344L3.0655 8.58607ZM2.44971 5.89991C2.5415 5.35296 2.75662 4.84783 3.0655 4.4141L2.20805 3.55666C1.692 4.22054 1.34645 5.02354 1.23715 5.89991H2.44971ZM3.91405 3.56559C4.34779 3.25673 4.85294 3.04163 5.3999 2.94987V1.73715C4.5235 1.84645 3.72047 2.19203 3.05657 2.70812L3.91405 3.56559ZM6.5999 2.94987C7.14685 3.04163 7.65198 3.25672 8.08572 3.56557L8.94328 2.708C8.27936 2.19194 7.47632 1.84639 6.5999 1.73712V2.94987ZM8.93428 4.41406L9.79183 3.55651C10.308 4.22042 10.6535 5.02347 10.7629 5.89991H9.5501C9.4583 5.35294 9.24317 4.8478 8.93428 4.41406ZM6 12.5C9.31371 12.5 12 9.81371 12 6.5C12 3.18629 9.31371 0.5 6 0.5C2.68629 0.5 0 3.18629 0 6.5C0 9.81371 2.68629 12.5 6 12.5ZM5.99982 4.48252L7.40018 5.75522C7.6424 5.92872 7.79986 6.21001 7.79986 6.52752C7.79986 7.05461 7.36592 7.4819 6.83063 7.4819C6.66135 7.4819 6.5022 7.43917 6.36371 7.36406L6.55381 8.29997H5.44611L5.6362 7.36407C5.49772 7.43917 5.33858 7.4819 5.16931 7.4819C4.63402 7.4819 4.20007 7.05461 4.20007 6.52752C4.20007 6.21065 4.35691 5.92984 4.59831 5.75626L5.99982 4.48252Z" fill="white"/>
</svg>
