<svg width="54" height="56" viewBox="0 0 54 56" fill="none" xmlns="http://www.w3.org/2000/svg">
<rect x="0.599976" width="52.8" height="56" rx="26.4" fill="#FBF0F0"/>
<path d="M27 37.6C27.4533 37.6 27.8336 37.4464 28.1408 37.1392C28.4469 36.8331 28.6 36.4533 28.6 36C28.6 35.5467 28.4469 35.1664 28.1408 34.8592C27.8336 34.5531 27.4533 34.4 27 34.4C26.5466 34.4 26.1669 34.5531 25.8608 34.8592C25.5536 35.1664 25.4 35.5467 25.4 36C25.4 36.4533 25.5536 36.8331 25.8608 37.1392C26.1669 37.4464 26.5466 37.6 27 37.6ZM25.4 31.2H28.6V21.6H25.4V31.2ZM15.8 44C14.92 44 14.1664 43.6869 13.5392 43.0608C12.913 42.4336 12.6 41.68 12.6 40.8V18.4C12.6 17.52 12.913 16.7664 13.5392 16.1392C14.1664 15.5131 14.92 15.2 15.8 15.2H22.52C22.8666 14.24 23.4469 13.4667 24.2608 12.88C25.0736 12.2933 25.9866 12 27 12C28.0133 12 28.9269 12.2933 29.7408 12.88C30.5536 13.4667 31.1333 14.24 31.48 15.2H38.2C39.08 15.2 39.8336 15.5131 40.4608 16.1392C41.0869 16.7664 41.4 17.52 41.4 18.4V40.8C41.4 41.68 41.0869 42.4336 40.4608 43.0608C39.8336 43.6869 39.08 44 38.2 44H15.8ZM27 17.2C27.3466 17.2 27.6336 17.0864 27.8608 16.8592C28.0869 16.6331 28.2 16.3467 28.2 16C28.2 15.6533 28.0869 15.3664 27.8608 15.1392C27.6336 14.9131 27.3466 14.8 27 14.8C26.6533 14.8 26.3669 14.9131 26.1408 15.1392C25.9136 15.3664 25.8 15.6533 25.8 16C25.8 16.3467 25.9136 16.6331 26.1408 16.8592C26.3669 17.0864 26.6533 17.2 27 17.2ZM15.8 40.8H38.2V18.4H15.8V40.8Z" fill="#86100E"/>
</svg>
