<svg width="16" height="16" viewBox="0 0 16 16" fill="none" xmlns="http://www.w3.org/2000/svg">
<g clip-path="url(#clip0_17_555)">
<path d="M6.00001 14C6.00001 14.3334 6.26668 14.6667 6.66668 14.6667H9.33334C9.73334 14.6667 10 14.3334 10 14V13.3334H6.00001V14ZM8.00001 1.33337C5.40001 1.33337 3.33334 3.40004 3.33334 6.00004C3.33334 7.60004 4.13334 9.00004 5.33334 9.80004V11.3334C5.33334 11.6667 5.60001 12 6.00001 12H10C10.4 12 10.6667 11.6667 10.6667 11.3334V9.80004C11.8667 8.93337 12.6667 7.53337 12.6667 6.00004C12.6667 3.40004 10.6 1.33337 8.00001 1.33337Z" fill="#2985EE"/>
</g>
<defs>
<clipPath id="clip0_17_555">
<rect width="16" height="16" fill="white"/>
</clipPath>
</defs>
</svg>
