<svg width="12" height="13" viewBox="0 0 12 13" fill="none" xmlns="http://www.w3.org/2000/svg">
<path d="M5.81245 9.55401C5.69591 9.55401 5.58993 9.50102 5.50525 9.41626L3.18508 6.91598C3.01555 6.73589 3.02619 6.44981 3.18508 6.26972C3.3546 6.08963 3.61947 6.1002 3.78899 6.26972L5.80193 8.44157L10.2622 3.38805C10.4211 3.20795 10.6966 3.19739 10.8661 3.36684C11.0356 3.53637 11.0462 3.82236 10.8873 4.0131L6.13041 9.41624C6.04558 9.501 5.92903 9.55399 5.81256 9.55399L5.81245 9.55401Z" fill="#258629"/>
<path d="M5.88669 7.07585L8.53529 4.06705C8.67304 3.90816 8.70482 3.66444 8.58828 3.48434C8.42939 3.24068 8.11155 3.21948 7.93144 3.43135L5.22987 6.50372C5.08156 6.67325 5.08156 6.93811 5.25108 7.09699C5.43118 7.27716 5.71716 7.26652 5.88669 7.07585Z" fill="#258629"/>
<path d="M4.06412 8.72811L1.80752 6.27021C1.66977 6.12189 1.46846 6.0689 1.2778 6.13246C0.981154 6.249 0.917606 6.58798 1.10827 6.79993L3.41785 9.3108C3.58737 9.50146 3.88402 9.50146 4.05355 9.3108C4.22315 9.16255 4.22315 8.89769 4.06419 8.72816L4.06412 8.72811Z" fill="#258629"/>
</svg>
