<svg width="64" height="65" viewBox="0 0 64 65" fill="none" xmlns="http://www.w3.org/2000/svg">
<rect x="0.5" y="0.900024" width="63" height="63" rx="31.5" fill="white"/>
<path d="M11.1694 44.3422C10.9435 44.568 10.9435 44.9488 11.1694 45.187L16.2131 50.2308C16.439 50.4566 16.8197 50.4566 17.0579 50.2308L24.2075 43.0812L18.3189 37.1927L11.1694 44.3422Z" fill="#E2E2E2"/>
<path d="M27.9907 40.131L21.2694 33.41L19.5921 31.7328C18.9023 31.0429 17.7603 31.0429 17.0701 31.7328C16.3802 32.4226 16.3802 33.5646 17.0701 34.2548L27.158 44.3427C27.8479 45.0326 28.9898 45.0326 29.68 44.3427C30.3699 43.6528 30.3699 42.5109 29.68 41.8207L27.9907 40.131Z" fill="#E2E2E2"/>
<path d="M26.087 29.4245L22.5301 32.9814L28.4186 38.8699L31.9755 35.313L35.5324 38.8699L41.4209 32.9814L37.864 29.4245L45.537 21.7516L47.0004 14.4L39.6485 15.863L31.9755 23.536L24.3026 15.863L16.9506 14.4L18.4141 21.7516L26.087 29.4245Z" fill="#E2E2E2"/>
<path d="M52.7817 44.342L45.6321 37.1924L39.7436 43.081L46.8931 50.2305C47.119 50.4563 47.4998 50.4563 47.7379 50.2305L52.7817 45.1868C53.0075 44.9486 53.0075 44.5682 52.7817 44.342Z" fill="#E2E2E2"/>
<path d="M46.8932 34.2423C47.583 33.5524 47.583 32.4105 46.8932 31.7203C46.2033 31.0304 45.0613 31.0304 44.3711 31.7203L42.682 33.4098L34.2714 41.8204C33.5816 42.5103 33.5816 43.6522 34.2714 44.3424C34.9613 45.0323 36.1032 45.0323 36.7934 44.3424L45.204 35.9319L46.8932 34.2423Z" fill="#E2E2E2"/>
<rect x="0.5" y="0.900024" width="63" height="63" rx="31.5" stroke="#F2F2F2"/>
</svg>
