<svg width="80" height="18" viewBox="0 0 80 18" fill="none" xmlns="http://www.w3.org/2000/svg">
<rect y="0.5" width="80" height="17" rx="8.5" fill="#2985EE"/>
<g clip-path="url(#clip0_11_714)">
<path d="M8.33337 5.6665V9.33317H9.33337V12.3332L11.6667 8.33317H10.3334L11.6667 5.6665H8.33337Z" fill="white"/>
</g>
<path d="M17.6797 5.8125V11.5H16.5078V5.8125H17.6797ZM19.9453 8.24219V9.15625H17.3594V8.24219H19.9453ZM20.2188 5.8125V6.73047H17.3594V5.8125H20.2188ZM22.4922 6.78516L20.9453 11.5H19.6992L21.8125 5.8125H22.6055L22.4922 6.78516ZM23.7773 11.5L22.2266 6.78516L22.1016 5.8125H22.9023L25.0273 11.5H23.7773ZM23.707 9.38281V10.3008H20.7031V9.38281H23.707ZM28.5156 10.0117C28.5156 9.91016 28.5 9.81901 28.4688 9.73828C28.4401 9.65495 28.3854 9.57943 28.3047 9.51172C28.224 9.44141 28.1107 9.3724 27.9648 9.30469C27.819 9.23698 27.6302 9.16667 27.3984 9.09375C27.1406 9.01042 26.8958 8.91667 26.6641 8.8125C26.4349 8.70833 26.2318 8.58724 26.0547 8.44922C25.8802 8.30859 25.7422 8.14583 25.6406 7.96094C25.5417 7.77604 25.4922 7.5612 25.4922 7.31641C25.4922 7.07943 25.5443 6.86458 25.6484 6.67188C25.7526 6.47656 25.8984 6.3099 26.0859 6.17188C26.2734 6.03125 26.4948 5.92318 26.75 5.84766C27.0078 5.77214 27.2904 5.73438 27.5977 5.73438C28.0169 5.73438 28.3828 5.8099 28.6953 5.96094C29.0078 6.11198 29.25 6.31901 29.4219 6.58203C29.5964 6.84505 29.6836 7.14583 29.6836 7.48438H28.5195C28.5195 7.31771 28.4844 7.17188 28.4141 7.04688C28.3464 6.91927 28.2422 6.81901 28.1016 6.74609C27.9635 6.67318 27.7891 6.63672 27.5781 6.63672C27.375 6.63672 27.2057 6.66797 27.0703 6.73047C26.9349 6.79036 26.8333 6.8724 26.7656 6.97656C26.6979 7.07812 26.6641 7.19271 26.6641 7.32031C26.6641 7.41667 26.6875 7.50391 26.7344 7.58203C26.7839 7.66016 26.8568 7.73307 26.9531 7.80078C27.0495 7.86849 27.168 7.93229 27.3086 7.99219C27.4492 8.05208 27.612 8.11068 27.7969 8.16797C28.1068 8.26172 28.3789 8.36719 28.6133 8.48438C28.8503 8.60156 29.0482 8.73307 29.207 8.87891C29.3659 9.02474 29.4857 9.1901 29.5664 9.375C29.6471 9.5599 29.6875 9.76953 29.6875 10.0039C29.6875 10.2513 29.6393 10.4727 29.543 10.668C29.4466 10.8633 29.3073 11.0286 29.125 11.1641C28.9427 11.2995 28.7253 11.4023 28.4727 11.4727C28.2201 11.543 27.9375 11.5781 27.625 11.5781C27.3438 11.5781 27.0664 11.5417 26.793 11.4688C26.5195 11.3932 26.2708 11.2799 26.0469 11.1289C25.8255 10.9779 25.6484 10.7852 25.5156 10.5508C25.3828 10.3164 25.3164 10.0391 25.3164 9.71875H26.4922C26.4922 9.89583 26.5195 10.0456 26.5742 10.168C26.6289 10.2904 26.7057 10.3893 26.8047 10.4648C26.9062 10.5404 27.026 10.5951 27.1641 10.6289C27.3047 10.6628 27.4583 10.6797 27.625 10.6797C27.8281 10.6797 27.9948 10.651 28.125 10.5938C28.2578 10.5365 28.3555 10.457 28.418 10.3555C28.4831 10.2539 28.5156 10.1393 28.5156 10.0117ZM33.0273 5.8125V11.5H31.8594V5.8125H33.0273ZM34.7773 5.8125V6.73047H30.1367V5.8125H34.7773ZM38.0508 8.45703L39.1445 7.75C39.306 7.64323 39.4141 7.54036 39.4688 7.44141C39.5234 7.34245 39.5508 7.23177 39.5508 7.10938C39.5508 6.98698 39.5052 6.8737 39.4141 6.76953C39.3229 6.66276 39.1953 6.60938 39.0312 6.60938C38.9141 6.60938 38.8151 6.63672 38.7344 6.69141C38.6536 6.74349 38.5924 6.8138 38.5508 6.90234C38.5117 6.99089 38.4922 7.08984 38.4922 7.19922C38.4922 7.31641 38.5234 7.4362 38.5859 7.55859C38.6484 7.67839 38.7331 7.80599 38.8398 7.94141C38.9466 8.07422 39.0651 8.21875 39.1953 8.375L41.8789 11.5H40.6016L38.4141 8.96875C38.2292 8.73958 38.0677 8.52995 37.9297 8.33984C37.7917 8.14714 37.6836 7.95964 37.6055 7.77734C37.5273 7.59505 37.4883 7.40755 37.4883 7.21484C37.4883 6.91797 37.5521 6.65885 37.6797 6.4375C37.8073 6.21354 37.987 6.04036 38.2188 5.91797C38.4505 5.79297 38.7227 5.73047 39.0352 5.73047C39.3294 5.73047 39.5846 5.79167 39.8008 5.91406C40.0169 6.03385 40.1836 6.19271 40.3008 6.39062C40.4206 6.58854 40.4805 6.80599 40.4805 7.04297C40.4805 7.22005 40.4479 7.38411 40.3828 7.53516C40.3177 7.68359 40.2279 7.82161 40.1133 7.94922C39.9987 8.07422 39.8672 8.1901 39.7188 8.29688L38.4727 9.18359C38.3763 9.27214 38.3034 9.35938 38.2539 9.44531C38.2044 9.53125 38.1706 9.61328 38.1523 9.69141C38.1341 9.76693 38.125 9.83984 38.125 9.91016C38.125 10.0612 38.1576 10.1966 38.2227 10.3164C38.2878 10.4362 38.3789 10.5299 38.4961 10.5977C38.6133 10.6654 38.75 10.6992 38.9062 10.6992C39.1198 10.6992 39.3268 10.6523 39.5273 10.5586C39.7279 10.4648 39.9076 10.3307 40.0664 10.1562C40.2253 9.97917 40.3516 9.76953 40.4453 9.52734C40.5391 9.28516 40.5859 9.01823 40.5859 8.72656H41.5391C41.5391 9.01823 41.5104 9.29557 41.4531 9.55859C41.3958 9.81901 41.3034 10.0612 41.1758 10.2852C41.0482 10.5065 40.8789 10.7031 40.668 10.875C40.6523 10.888 40.6302 10.9076 40.6016 10.9336C40.5755 10.957 40.5534 10.9753 40.5352 10.9883C40.2852 11.1888 40.0247 11.3385 39.7539 11.4375C39.4831 11.5339 39.181 11.582 38.8477 11.582C38.4674 11.582 38.138 11.513 37.8594 11.375C37.5833 11.237 37.3698 11.0469 37.2188 10.8047C37.0703 10.5625 36.9961 10.2852 36.9961 9.97266C36.9961 9.74349 37.0404 9.54427 37.1289 9.375C37.2201 9.20312 37.3451 9.04427 37.5039 8.89844C37.6628 8.7526 37.8451 8.60547 38.0508 8.45703ZM47.4453 10.0117C47.4453 9.91016 47.4297 9.81901 47.3984 9.73828C47.3698 9.65495 47.3151 9.57943 47.2344 9.51172C47.1536 9.44141 47.0404 9.3724 46.8945 9.30469C46.7487 9.23698 46.5599 9.16667 46.3281 9.09375C46.0703 9.01042 45.8255 8.91667 45.5938 8.8125C45.3646 8.70833 45.1615 8.58724 44.9844 8.44922C44.8099 8.30859 44.6719 8.14583 44.5703 7.96094C44.4714 7.77604 44.4219 7.5612 44.4219 7.31641C44.4219 7.07943 44.474 6.86458 44.5781 6.67188C44.6823 6.47656 44.8281 6.3099 45.0156 6.17188C45.2031 6.03125 45.4245 5.92318 45.6797 5.84766C45.9375 5.77214 46.2201 5.73438 46.5273 5.73438C46.9466 5.73438 47.3125 5.8099 47.625 5.96094C47.9375 6.11198 48.1797 6.31901 48.3516 6.58203C48.526 6.84505 48.6133 7.14583 48.6133 7.48438H47.4492C47.4492 7.31771 47.4141 7.17188 47.3438 7.04688C47.276 6.91927 47.1719 6.81901 47.0312 6.74609C46.8932 6.67318 46.7188 6.63672 46.5078 6.63672C46.3047 6.63672 46.1354 6.66797 46 6.73047C45.8646 6.79036 45.763 6.8724 45.6953 6.97656C45.6276 7.07812 45.5938 7.19271 45.5938 7.32031C45.5938 7.41667 45.6172 7.50391 45.6641 7.58203C45.7135 7.66016 45.7865 7.73307 45.8828 7.80078C45.9792 7.86849 46.0977 7.93229 46.2383 7.99219C46.3789 8.05208 46.5417 8.11068 46.7266 8.16797C47.0365 8.26172 47.3086 8.36719 47.543 8.48438C47.7799 8.60156 47.9779 8.73307 48.1367 8.87891C48.2956 9.02474 48.4154 9.1901 48.4961 9.375C48.5768 9.5599 48.6172 9.76953 48.6172 10.0039C48.6172 10.2513 48.569 10.4727 48.4727 10.668C48.3763 10.8633 48.237 11.0286 48.0547 11.1641C47.8724 11.2995 47.6549 11.4023 47.4023 11.4727C47.1497 11.543 46.8672 11.5781 46.5547 11.5781C46.2734 11.5781 45.9961 11.5417 45.7227 11.4688C45.4492 11.3932 45.2005 11.2799 44.9766 11.1289C44.7552 10.9779 44.5781 10.7852 44.4453 10.5508C44.3125 10.3164 44.2461 10.0391 44.2461 9.71875H45.4219C45.4219 9.89583 45.4492 10.0456 45.5039 10.168C45.5586 10.2904 45.6354 10.3893 45.7344 10.4648C45.8359 10.5404 45.9557 10.5951 46.0938 10.6289C46.2344 10.6628 46.388 10.6797 46.5547 10.6797C46.7578 10.6797 46.9245 10.651 47.0547 10.5938C47.1875 10.5365 47.2852 10.457 47.3477 10.3555C47.4128 10.2539 47.4453 10.1393 47.4453 10.0117ZM53.2305 10.5859V11.5H50.2031V10.5859H53.2305ZM50.5859 5.8125V11.5H49.4141V5.8125H50.5859ZM52.8359 8.12891V9.01953H50.2031V8.12891H52.8359ZM53.2266 5.8125V6.73047H50.2031V5.8125H53.2266ZM57.2109 9.61328H58.3789C58.3555 9.99609 58.25 10.3359 58.0625 10.6328C57.8776 10.9297 57.6185 11.1615 57.2852 11.3281C56.9544 11.4948 56.556 11.5781 56.0898 11.5781C55.7253 11.5781 55.3984 11.5156 55.1094 11.3906C54.8203 11.263 54.5729 11.0807 54.3672 10.8438C54.1641 10.6068 54.0091 10.3203 53.9023 9.98438C53.7956 9.64844 53.7422 9.27214 53.7422 8.85547V8.46094C53.7422 8.04427 53.7969 7.66797 53.9062 7.33203C54.0182 6.99349 54.1771 6.70573 54.3828 6.46875C54.5911 6.23177 54.8398 6.04948 55.1289 5.92188C55.418 5.79427 55.7409 5.73047 56.0977 5.73047C56.5716 5.73047 56.9714 5.81641 57.2969 5.98828C57.625 6.16016 57.8789 6.39714 58.0586 6.69922C58.2409 7.0013 58.3503 7.34505 58.3867 7.73047H57.2148C57.2018 7.5013 57.1562 7.30729 57.0781 7.14844C57 6.98698 56.8815 6.86589 56.7227 6.78516C56.5664 6.70182 56.3581 6.66016 56.0977 6.66016C55.9023 6.66016 55.7318 6.69661 55.5859 6.76953C55.4401 6.84245 55.3177 6.95312 55.2188 7.10156C55.1198 7.25 55.0456 7.4375 54.9961 7.66406C54.9492 7.88802 54.9258 8.15104 54.9258 8.45312V8.85547C54.9258 9.14974 54.9479 9.40885 54.9922 9.63281C55.0365 9.85417 55.1042 10.0417 55.1953 10.1953C55.2891 10.3464 55.4089 10.4609 55.5547 10.5391C55.7031 10.6146 55.8815 10.6523 56.0898 10.6523C56.3346 10.6523 56.5365 10.6133 56.6953 10.5352C56.8542 10.457 56.9753 10.3411 57.0586 10.1875C57.1445 10.0339 57.1953 9.84245 57.2109 9.61328ZM62.2891 5.8125H63.457V9.57031C63.457 10.0078 63.3633 10.3763 63.1758 10.6758C62.9909 10.9753 62.7344 11.2005 62.4062 11.3516C62.0807 11.5026 61.7057 11.5781 61.2812 11.5781C60.8568 11.5781 60.4792 11.5026 60.1484 11.3516C59.8203 11.2005 59.5625 10.9753 59.375 10.6758C59.1901 10.3763 59.0977 10.0078 59.0977 9.57031V5.8125H60.2695V9.57031C60.2695 9.82552 60.3099 10.0339 60.3906 10.1953C60.4714 10.3568 60.5872 10.4753 60.7383 10.5508C60.8919 10.6263 61.0729 10.6641 61.2812 10.6641C61.4948 10.6641 61.6758 10.6263 61.8242 10.5508C61.9753 10.4753 62.0898 10.3568 62.168 10.1953C62.2487 10.0339 62.2891 9.82552 62.2891 9.57031V5.8125ZM64.4219 5.8125H66.543C66.9779 5.8125 67.3516 5.8776 67.6641 6.00781C67.9792 6.13802 68.2214 6.33073 68.3906 6.58594C68.5599 6.84115 68.6445 7.15495 68.6445 7.52734C68.6445 7.83203 68.5924 8.09375 68.4883 8.3125C68.3867 8.52865 68.2422 8.70964 68.0547 8.85547C67.8698 8.9987 67.6523 9.11328 67.4023 9.19922L67.0312 9.39453H65.1875L65.1797 8.48047H66.5508C66.7565 8.48047 66.9271 8.44401 67.0625 8.37109C67.1979 8.29818 67.2995 8.19661 67.3672 8.06641C67.4375 7.9362 67.4727 7.78516 67.4727 7.61328C67.4727 7.43099 67.4388 7.27344 67.3711 7.14062C67.3034 7.00781 67.2005 6.90625 67.0625 6.83594C66.9245 6.76562 66.7513 6.73047 66.543 6.73047H65.5938V11.5H64.4219V5.8125ZM67.6016 11.5L66.3047 8.96484L67.543 8.95703L68.8555 11.4453V11.5H67.6016ZM73.3633 10.5859V11.5H70.3359V10.5859H73.3633ZM70.7188 5.8125V11.5H69.5469V5.8125H70.7188ZM72.9688 8.12891V9.01953H70.3359V8.12891H72.9688ZM73.3594 5.8125V6.73047H70.3359V5.8125H73.3594Z" fill="white"/>
<defs>
<clipPath id="clip0_11_714">
<rect width="8" height="8" fill="white" transform="translate(6 5)"/>
</clipPath>
</defs>
</svg>
