<svg width="64" height="64" viewBox="0 0 64 64" fill="none" xmlns="http://www.w3.org/2000/svg">
<g clip-path="url(#clip0_925_19966)">
<path opacity="0.19" d="M32.0009 0.806763C49.674 0.806763 64.001 14.7722 64.001 31.9994C64.001 49.2266 49.674 63.192 32.0009 63.192C14.3277 63.192 0.000976562 49.2266 0.000976562 31.9994C0.000976562 23.782 11.5395 28.123 16.8841 22.534C22.7089 16.4428 22.7579 0.806763 32.0009 0.806763Z" fill="#F9D1BA"/>
<g clip-path="url(#clip1_925_19966)">
<path fill-rule="evenodd" clip-rule="evenodd" d="M8.7334 37.048H16.7334H16.7342V57.0022H46.7342V37.048H46.7434H54.7434V23.6686C54.7434 19.6778 52.3634 16.076 48.6834 14.4996L40.7434 11.1074L38.5234 12.3346C34.3034 14.6693 29.1734 14.6693 24.9534 12.3346L22.7334 11.1074L14.7934 14.5096C11.1134 16.076 8.7334 19.6878 8.7334 23.6786V37.048Z" fill="#121212"/>
</g>
<g clip-path="url(#clip2_925_19966)">
<path fill-rule="evenodd" clip-rule="evenodd" d="M55.2725 37.0481H47.2725H47.2715V57.0023H17.2715V37.0481H17.2625H9.26246V23.6688C9.26246 19.6779 11.6425 16.0762 15.3225 14.4998L23.2625 11.1075L25.4825 12.3347C29.7025 14.6694 34.8325 14.6694 39.0525 12.3347L41.2725 11.1075L49.2125 14.5097C52.8925 16.0762 55.2725 19.6879 55.2725 23.6787V37.0481Z" fill="#121212"/>
</g>
<path d="M23.4141 24.9185H33.4698V22.4045L40.1735 27.4324L33.4698 31.6223V29.1083H27.6039V33.2982H23.4141L23.4141 24.9185Z" fill="white"/>
<path d="M40.1328 43.0395H30.0771V45.5535L23.3733 40.5256L30.0771 36.3357V38.8497H35.9429V34.6598H40.1328L40.1328 43.0395Z" fill="white"/>
<circle cx="53.2311" cy="53.2308" r="6.46154" fill="white"/>
<path d="M52.7563 43.4668C47.6341 43.4668 43.4668 47.6537 43.4668 52.8001C43.4668 57.9465 47.6537 62.1335 52.8001 62.1335C57.9465 62.1335 62.1335 57.9465 62.1335 52.8001C62.1335 47.6537 57.9269 43.4668 52.7563 43.4668ZM53.7335 57.4668H51.8668V55.6001H53.7335V57.4668ZM53.7335 53.7335H51.8668V48.1335H53.7335V53.7335Z" fill="#EF4444"/>
</g>
<defs>
<clipPath id="clip0_925_19966">
<rect width="64" height="64" fill="white"/>
</clipPath>
<clipPath id="clip1_925_19966">
<rect width="24.2697" height="48" fill="white" transform="translate(7.73145 10)"/>
</clipPath>
<clipPath id="clip2_925_19966">
<rect width="24.2697" height="48" fill="white" transform="matrix(-1 0 0 1 56.2715 10)"/>
</clipPath>
</defs>
</svg>
