<svg width="64" height="64" viewBox="0 0 64 64" fill="none" xmlns="http://www.w3.org/2000/svg">
<g clip-path="url(#clip0_905_17224)">
<path opacity="0.19" d="M31.9999 0.806763C49.673 0.806763 64.0001 14.7722 64.0001 31.9994C64.0001 49.2266 49.673 63.192 31.9999 63.192C14.3268 63.192 0 49.2266 0 31.9994C0 23.782 11.5385 28.123 16.8831 22.534C22.7079 16.4428 22.7569 0.806763 31.9999 0.806763Z" fill="#F9D1BA"/>
<g clip-path="url(#clip1_905_17224)">
<path fill-rule="evenodd" clip-rule="evenodd" d="M8.7334 37.048H16.7334H16.7342V57.0022H46.7342V37.048H46.7434H54.7434V23.6686C54.7434 19.6778 52.3634 16.076 48.6834 14.4996L40.7434 11.1074L38.5234 12.3346C34.3034 14.6693 29.1734 14.6693 24.9534 12.3346L22.7334 11.1074L14.7934 14.5096C11.1134 16.076 8.7334 19.6878 8.7334 23.6786V37.048Z" fill="#121212"/>
</g>
<g clip-path="url(#clip2_905_17224)">
<path fill-rule="evenodd" clip-rule="evenodd" d="M55.2725 37.0481H47.2725H47.2716V57.0023H17.2716V37.0481H17.2625H9.26246V23.6688C9.26246 19.6779 11.6425 16.0762 15.3225 14.4998L23.2625 11.1075L25.4825 12.3347C29.7025 14.6694 34.8325 14.6694 39.0525 12.3347L41.2725 11.1075L49.2125 14.5097C52.8925 16.0762 55.2725 19.6879 55.2725 23.6787V37.0481Z" fill="#121212"/>
</g>
<path d="M23.4141 24.9185H33.4698V22.4045L40.1735 27.4324L33.4698 31.6223V29.1083H27.6039V33.2982H23.4141L23.4141 24.9185Z" fill="white"/>
<path d="M40.1338 43.0397H30.0781V45.5536L23.3743 40.5257L30.0781 36.3359V38.8498H35.9439V34.6599H40.1338L40.1338 43.0397Z" fill="white"/>
</g>
<defs>
<clipPath id="clip0_905_17224">
<rect width="64" height="64" fill="white"/>
</clipPath>
<clipPath id="clip1_905_17224">
<rect width="24.2697" height="48" fill="white" transform="translate(7.73145 10)"/>
</clipPath>
<clipPath id="clip2_905_17224">
<rect width="24.2697" height="48" fill="white" transform="matrix(-1 0 0 1 56.2715 10)"/>
</clipPath>
</defs>
</svg>
