<svg width="32" height="33" fill="none" xmlns="http://www.w3.org/2000/svg"><rect y=".376" width="32" height="32" rx="8" fill="#fff"/><path d="M20.079 23.389v.881c0 .214-.171.37-.37.37H5.299a.367.367 0 01-.365-.37v-.881a.88.88 0 01.88-.881h13.38c.457 0 .885.385.885.88zm-1.362-2.427v.854H6.292v-.854c0-.464.377-.837.837-.837H17.88c.46 0 .837.373.837.837zm8.323-3.254l-.57 1.324a.322.322 0 01-.422.17l-7.002-3.005a.323.323 0 01-.17-.422l.035-.087-.785-.335-.138.318a.329.329 0 01-.429.173l-.498-.215-.36.837a.486.486 0 01-.64.256l-.051-.02-.287.674.297.128a.58.58 0 01.304.757.601.601 0 01-.321.311.569.569 0 01-.44-.007l-4.837-2.075a.577.577 0 01.013-1.068.577.577 0 01.443.003l.297.128.287-.674-.048-.02a.49.49 0 01-.26-.64l1.702-3.963A.488.488 0 0113.8 10l.052.02.29-.67-.297-.129a.578.578 0 01.014-1.069.577.577 0 01.442.004l4.838 2.079a.58.58 0 01.304.757.588.588 0 01-.76.304l-.298-.128-.29.675.052.02a.489.489 0 01.255.644l-.31.726.494.214a.33.33 0 01.173.43l-.139.317.789.34.034-.084a.324.324 0 01.422-.17l7.006 3.006c.163.072.239.26.17.422z" fill="#2985EE"/></svg>