<svg width="24" height="18" viewBox="0 0 24 18" fill="none" xmlns="http://www.w3.org/2000/svg">
<path d="M16.079 16.0133V16.8949C16.079 17.1085 15.9076 17.2651 15.7088 17.2651L1.299 17.2649C1.09756 17.2649 0.933605 17.1009 0.933605 16.8948V16.0132C0.933605 15.526 1.32703 15.1324 1.81434 15.1324H15.1937C15.6507 15.1326 16.079 15.5173 16.079 16.0133Z" fill="#5A5A5A"/>
<path d="M14.7171 13.5862V14.4404H2.29216V13.5862C2.29216 13.1229 2.66904 12.7494 3.12897 12.7494H13.8802C14.3403 12.7494 14.7172 13.1229 14.7172 13.5862H14.7171Z" fill="#5A5A5A"/>
<path d="M23.0408 10.3321L22.4703 11.6566C22.4011 11.8192 22.2145 11.8951 22.0483 11.8261L15.0457 8.82101C14.8833 8.75178 14.8071 8.56166 14.8764 8.39905L14.911 8.3126L14.126 7.97726L13.9877 8.29538C13.9151 8.46136 13.7248 8.53751 13.559 8.46828L13.061 8.25384L12.7014 9.09066C12.5977 9.33617 12.3106 9.45369 12.0616 9.34647L12.0097 9.3257L11.7227 10.0001L12.02 10.1281C12.3105 10.2525 12.4488 10.595 12.3243 10.8854C12.2586 11.0306 12.1411 11.1412 12.0027 11.1966C11.8644 11.252 11.7087 11.252 11.5635 11.1897L6.72561 9.11484C6.43164 8.9904 6.29335 8.64796 6.42134 8.35397C6.48365 8.20876 6.60117 8.10154 6.73946 8.04616C6.87775 7.99077 7.03343 7.98739 7.18201 8.0497L7.47936 8.17769L7.7664 7.50345L7.71794 7.48268C7.46905 7.37546 7.35491 7.08841 7.45859 6.84289L9.15992 2.87993C9.26714 2.63441 9.55064 2.51673 9.79971 2.62394L9.85155 2.64471L10.142 1.97385L9.84463 1.84586C9.55065 1.72141 9.41591 1.3756 9.54035 1.08516C9.60266 0.939951 9.72018 0.832733 9.85847 0.777347C9.99676 0.721962 10.1524 0.718586 10.3012 0.780893L15.1391 2.85912C15.4295 2.98356 15.5678 3.326 15.4433 3.61644C15.3776 3.7652 15.26 3.86887 15.1252 3.92425C14.9869 3.97964 14.8279 3.98302 14.6825 3.92071L14.3851 3.79272L14.0947 4.46713L14.1465 4.4879C14.3954 4.59513 14.5096 4.88217 14.4024 5.13106L14.0912 5.85731L14.5857 6.07175C14.7517 6.14098 14.8277 6.33465 14.7586 6.50046L14.6203 6.81858L15.4087 7.15746L15.4433 7.07439C15.5159 6.91195 15.7027 6.8358 15.8651 6.90503L22.8712 9.9101C23.0338 9.98271 23.1099 10.1695 23.0407 10.3321L23.0408 10.3321Z" fill="#5A5A5A"/>
</svg>
