<svg width="28" height="28" viewBox="0 0 28 28" fill="none" xmlns="http://www.w3.org/2000/svg">
<rect width="28" height="28" rx="8" fill="#FBF0F0"/>
<g clip-path="url(#clip0_8_57)">
<path d="M10.126 10.4403C9.83724 10.4403 9.60319 10.6744 9.60319 10.9632C9.60319 11.2519 9.83724 11.486 10.126 11.486H16.9216C17.2104 11.486 17.4444 11.2519 17.4444 10.9632C17.4444 10.6744 17.2104 10.4403 16.9216 10.4403H10.126Z" fill="#AE1714" stroke="#AE1714" stroke-width="0.2"/>
<path d="M16.2704 13.9999V13.9999C16.2703 13.7113 16.0368 13.4771 15.748 13.4771H15.7478H10.124C9.83528 13.4771 9.60123 13.7111 9.60123 13.9999C9.60123 14.2887 9.83528 14.5227 10.124 14.5227H15.7476C16.0363 14.5227 16.2704 14.2887 16.2704 13.9999Z" fill="#AE1714" stroke="#AE1714" stroke-width="0.2"/>
<path d="M14.6668 17.5576C14.9556 17.5576 15.1897 17.3235 15.1897 17.0348C15.1897 16.746 14.9556 16.5119 14.6668 16.5119H10.1238C9.83507 16.5119 9.60102 16.746 9.60102 17.0348C9.60102 17.3235 9.83507 17.5576 10.1238 17.5576H14.6668Z" fill="#AE1714" stroke="#AE1714" stroke-width="0.2"/>
<path d="M15.3063 20.0541H9.23151C8.52291 20.0541 7.94562 19.4769 7.94562 18.7683V9.23151C7.94562 8.52291 8.52291 7.94562 9.23151 7.94562H17.8147C18.5233 7.94562 19.1006 8.52291 19.1006 9.23151V13.1778C19.1006 13.4665 19.3347 13.7006 19.6234 13.7006C19.9122 13.7006 20.1462 13.4665 20.1462 13.1778V9.23151C20.1462 7.94591 19.1003 6.9 17.8147 6.9H9.23151C7.94591 6.9 6.9 7.94591 6.9 9.23151V18.7683C6.9 20.0539 7.94591 21.0998 9.23151 21.0998H15.3058C15.5945 21.0998 15.8286 20.8657 15.8286 20.577C15.8286 20.2883 15.5951 20.0541 15.3063 20.0541Z" fill="#AE1714" stroke="#AE1714" stroke-width="0.2"/>
<path d="M20.5637 16.6321C20.5637 15.4008 19.5621 14.3996 18.3313 14.3996C17.1004 14.3996 16.0988 15.4012 16.0988 16.6321C16.0988 17.2523 16.3539 17.8132 16.7636 18.218L16.7637 20.577C16.7637 20.7325 16.8487 20.8753 16.9854 20.949C17.0484 20.9829 17.1175 20.9998 17.1865 20.9998C17.2673 20.9998 17.3481 20.9767 17.4185 20.9306L18.3318 20.3312L19.2456 20.9306C19.3752 21.0157 19.542 21.0232 19.6783 20.9494C19.815 20.8757 19.9 20.7329 19.9 20.5774V18.218C20.3087 17.8127 20.5637 17.2518 20.5637 16.6321L20.5637 16.6321ZM18.3308 15.2448C19.0956 15.2448 19.7181 15.8673 19.7181 16.6321C19.7181 17.3968 19.0956 18.0189 18.3308 18.0189C17.5661 18.0189 16.9436 17.3968 16.9436 16.6321C16.9435 15.8673 17.566 15.2448 18.3308 15.2448ZM19.0539 19.7937L18.5629 19.4719C18.422 19.3793 18.2397 19.3798 18.0992 19.4719L17.6088 19.7937V18.7339C17.8366 18.8123 18.0772 18.8644 18.3313 18.8644C18.5855 18.8644 18.8259 18.8127 19.0543 18.7339V19.7937H19.0539Z" fill="#AE1714"/>
<path d="M20.5637 16.6321C20.5637 15.4008 19.5621 14.3996 18.3313 14.3996C17.1004 14.3996 16.0988 15.4012 16.0988 16.6321C16.0988 17.2523 16.3539 17.8132 16.7636 18.218L16.7637 20.577C16.7637 20.7325 16.8487 20.8753 16.9854 20.949C17.0484 20.9829 17.1175 20.9998 17.1865 20.9998C17.2673 20.9998 17.3481 20.9767 17.4185 20.9306L18.3318 20.3312L19.2456 20.9306C19.3752 21.0157 19.542 21.0232 19.6783 20.9494C19.815 20.8757 19.9 20.7329 19.9 20.5774V18.218C20.3087 17.8127 20.5637 17.2518 20.5637 16.6321L20.5637 16.6321ZM18.3308 15.2448C19.0956 15.2448 19.7181 15.8673 19.7181 16.6321C19.7181 17.3968 19.0956 18.0189 18.3308 18.0189C17.5661 18.0189 16.9436 17.3968 16.9436 16.6321C16.9435 15.8673 17.566 15.2448 18.3308 15.2448ZM19.0539 19.7937L18.5629 19.4719C18.422 19.3793 18.2397 19.3798 18.0992 19.4719L17.6088 19.7937V18.7339C17.8366 18.8123 18.0772 18.8644 18.3313 18.8644C18.5855 18.8644 18.8259 18.8127 19.0543 18.7339V19.7937H19.0539Z" stroke="#AE1714"/>
</g>
<defs>
<clipPath id="clip0_8_57">
<rect width="15.5014" height="16" fill="white" transform="translate(6.24933 6)"/>
</clipPath>
</defs>
</svg>
