<svg width="28" height="28" viewBox="0 0 28 28" fill="none" xmlns="http://www.w3.org/2000/svg">
<rect width="28" height="28" rx="8" fill="#FBF0F0"/>
<path d="M20.8447 10.3696L17.6304 7.15534C17.5292 7.05514 17.3924 6.99917 17.25 7.00001H10.8214C10.3951 7.00001 9.98641 7.16933 9.68495 7.47067C9.3836 7.77213 9.21428 8.18084 9.21428 8.60715V11.8214C9.21428 12.0129 9.3164 12.1897 9.48214 12.2854C9.64788 12.3811 9.85212 12.3811 10.0179 12.2854C10.1836 12.1897 10.2857 12.0129 10.2857 11.8214V8.60715C10.2857 8.46509 10.3422 8.32877 10.4426 8.22832C10.543 8.12788 10.6794 8.07144 10.8214 8.07144H16.7143V9.67858C16.7143 10.1049 16.8836 10.5136 17.1849 10.8151C17.4864 11.1164 17.8951 11.2857 18.3214 11.2857H19.9286V20.3929C19.9286 20.5349 19.8721 20.6712 19.7717 20.7717C19.6712 20.8721 19.5349 20.9286 19.3928 20.9286H15.1071C14.9157 20.9286 14.7388 21.0307 14.6432 21.1964C14.5475 21.3622 14.5475 21.5664 14.6432 21.7321C14.7388 21.8979 14.9157 22 15.1071 22H19.3928C19.8191 22 20.2279 21.8307 20.5293 21.5293C20.8307 21.2279 21 20.8192 21 20.3929V10.75C21.0008 10.6076 20.9449 10.4708 20.8447 10.3696ZM17.7857 9.67858V8.82683L19.1732 10.2143H18.3214C18.1794 10.2143 18.043 10.1579 17.9426 10.0574C17.8421 9.95697 17.7857 9.82064 17.7857 9.67858ZM10.2857 13.4286C9.14911 13.4286 8.05904 13.8801 7.25522 14.6838C6.45153 15.4876 6 16.5777 6 17.7143C6 18.8509 6.45153 19.941 7.25522 20.7448C8.05904 21.5485 9.14911 22 10.2857 22C11.4223 22 12.5124 21.5485 13.3162 20.7448C14.1199 19.941 14.5714 18.8509 14.5714 17.7143C14.5714 16.5777 14.1199 15.4876 13.3162 14.6838C12.5124 13.8801 11.4223 13.4286 10.2857 13.4286ZM10.2857 20.9286C9.43322 20.9286 8.61566 20.5899 8.01288 19.9871C7.41009 19.3843 7.07143 18.5668 7.07143 17.7143C7.07143 16.8618 7.41006 16.0442 8.01288 15.4415C8.61569 14.8387 9.43322 14.5 10.2857 14.5C11.1382 14.5 11.9558 14.8386 12.5585 15.4415C13.1613 16.0443 13.5 16.8618 13.5 17.7143C13.5 18.5668 13.1614 19.3843 12.5585 19.9871C11.9557 20.5899 11.1382 20.9286 10.2857 20.9286ZM15.6428 10.7499C15.6428 10.8919 15.5864 11.0283 15.486 11.1287C15.3855 11.2292 15.2492 11.2856 15.1071 11.2856H11.8929C11.7014 11.2856 11.5246 11.1835 11.4289 11.0177C11.3332 10.852 11.3332 10.6478 11.4289 10.482C11.5246 10.3163 11.7014 10.2142 11.8929 10.2142H15.1071C15.2492 10.2142 15.3855 10.2706 15.486 10.3711C15.5864 10.4715 15.6428 10.6078 15.6428 10.7499ZM18.8571 13.4285C18.8571 13.5705 18.8007 13.7068 18.7002 13.8073C18.5998 13.9077 18.4635 13.9642 18.3214 13.9642H15.1071C14.9157 13.9642 14.7388 13.8621 14.6432 13.6963C14.5475 13.5306 14.5475 13.3263 14.6432 13.1606C14.7388 12.9949 14.9157 12.8927 15.1071 12.8927H18.3214C18.4635 12.8927 18.5998 12.9492 18.7002 13.0496C18.8007 13.1501 18.8571 13.2864 18.8571 13.4285ZM18.8571 16.107C18.8571 16.2491 18.8007 16.3854 18.7002 16.4859C18.5998 16.5863 18.4635 16.6427 18.3214 16.6427H16.1786C15.9871 16.6427 15.8103 16.5406 15.7146 16.3749C15.6189 16.2091 15.6189 16.0049 15.7146 15.8392C15.8103 15.6734 15.9871 15.5713 16.1786 15.5713H18.3214C18.4635 15.5713 18.5998 15.6278 18.7002 15.7282C18.8007 15.8286 18.8571 15.965 18.8571 16.107ZM18.8571 18.7856C18.8571 18.9277 18.8007 19.064 18.7002 19.1644C18.5998 19.2649 18.4635 19.3213 18.3214 19.3213H16.1786C15.9871 19.3213 15.8103 19.2192 15.7146 19.0535C15.6189 18.8877 15.6189 18.6835 15.7146 18.5177C15.8103 18.352 15.9871 18.2499 16.1786 18.2499H18.3214C18.4635 18.2499 18.5998 18.3063 18.7002 18.4068C18.8007 18.5072 18.8571 18.6435 18.8571 18.7856Z" fill="#AE1714"/>
<path fill-rule="evenodd" clip-rule="evenodd" d="M20.8802 10.3344C20.9897 10.445 21.0509 10.5945 21.05 10.7501L21 10.75C21.0008 10.6076 20.9449 10.4708 20.8447 10.3696L17.6304 7.15534C17.5292 7.05514 17.3924 6.99917 17.25 7.00001H10.8214C10.3951 7.00001 9.98643 7.16933 9.68496 7.47067C9.38362 7.77213 9.21429 8.18085 9.21429 8.60715V11.8214C9.21429 12.0129 9.31641 12.1897 9.48215 12.2854C9.64789 12.3811 9.85213 12.3811 10.0179 12.2854C10.1836 12.1897 10.2857 12.0129 10.2857 11.8214V8.60715C10.2857 8.46509 10.3422 8.32877 10.4426 8.22833C10.5431 8.12788 10.6794 8.07144 10.8214 8.07144H16.7143V9.67858C16.7143 10.1049 16.8836 10.5136 17.1849 10.8151C17.4864 11.1164 17.8951 11.2857 18.3214 11.2857H19.9286V20.3929C19.9286 20.5349 19.8721 20.6712 19.7717 20.7717C19.6712 20.8721 19.5349 20.9286 19.3929 20.9286H15.1071C14.9157 20.9286 14.7388 21.0307 14.6432 21.1964C14.5475 21.3622 14.5475 21.5664 14.6432 21.7321C14.7388 21.8979 14.9157 22 15.1071 22H19.3929C19.8192 22 20.2279 21.8307 20.5293 21.5293C20.8307 21.2279 21 20.8192 21 20.3929V10.75L21.05 10.7501M19.8786 11.3357H18.3214C17.8819 11.3357 17.4604 11.1611 17.1496 10.8504C16.8389 10.5396 16.6643 10.1181 16.6643 9.67858V8.12144H10.8214C10.6926 8.12144 10.569 8.17262 10.478 8.26368C10.3869 8.35475 10.3357 8.47835 10.3357 8.60715V11.8214C10.3357 12.0307 10.2241 12.2241 10.0429 12.3287C9.86166 12.4333 9.63836 12.4333 9.45716 12.3287C9.27594 12.2241 9.16429 12.0307 9.16429 11.8214V8.60715C9.16429 8.16759 9.33889 7.74616 9.6496 7.43533C9.96044 7.12462 10.3819 6.95001 10.8214 6.95001H17.2499M7.21988 14.6484C8.03307 13.8354 9.13586 13.3786 10.2857 13.3786C11.4356 13.3786 12.5384 13.8354 13.3516 14.6484C14.1646 15.4616 14.6214 16.5644 14.6214 17.7143C14.6214 18.8642 14.1646 19.9669 13.3516 20.7801C12.5384 21.5932 11.4356 22.05 10.2857 22.05C9.13586 22.05 8.03307 21.5932 7.21988 20.7801C6.40682 19.9669 5.95001 18.8642 5.95001 17.7143C5.95001 16.5644 6.40682 15.4616 7.21988 14.6484ZM17.8357 8.94754V9.67859C17.8357 9.80739 17.8869 9.93099 17.978 10.0221C18.069 10.1131 18.1926 10.1643 18.3214 10.1643H19.0525L17.8357 8.94754ZM17.7857 9.67859C17.7857 9.82065 17.8422 9.95697 17.9426 10.0574C18.043 10.1579 18.1794 10.2143 18.3214 10.2143H19.1732L17.7857 8.82683V9.67859ZM7.25524 20.7448C6.45154 19.941 6.00001 18.8509 6.00001 17.7143C6.00001 16.5777 6.45154 15.4876 7.25524 14.6838C8.05905 13.8801 9.14912 13.4286 10.2857 13.4286C11.4223 13.4286 12.5124 13.8801 13.3162 14.6838C14.1199 15.4876 14.5714 16.5777 14.5714 17.7143C14.5714 18.8509 14.1199 19.941 13.3162 20.7448C12.5124 21.5485 11.4223 22 10.2857 22C9.14912 22 8.05905 21.5485 7.25524 20.7448ZM8.04824 19.9518C8.64165 20.5452 9.44649 20.8786 10.2857 20.8786C11.1249 20.8786 11.9298 20.5452 12.5232 19.9518C13.1166 19.3584 13.45 18.5535 13.45 17.7143C13.45 16.8751 13.1166 16.0703 12.5232 15.4768C11.9298 14.8834 11.125 14.55 10.2857 14.55C9.4465 14.55 8.64168 14.8834 8.04824 15.4768C7.4548 16.0702 7.12144 16.8751 7.12144 17.7143C7.12144 18.5535 7.45483 19.3583 8.04824 19.9518ZM15.6929 10.7499C15.6929 10.9052 15.6312 11.0542 15.5213 11.1641C15.4115 11.2739 15.2625 11.3356 15.1071 11.3356H11.8929C11.6836 11.3356 11.4902 11.224 11.3856 11.0427C11.281 10.8615 11.281 10.6382 11.3856 10.457C11.4902 10.2758 11.6836 10.1642 11.8929 10.1642H15.1071C15.2625 10.1642 15.4115 10.2259 15.5213 10.3357C15.6312 10.4455 15.6929 10.5946 15.6929 10.7499ZM18.9071 13.4285C18.9071 13.5838 18.8454 13.7328 18.7356 13.8426C18.6258 13.9525 18.4767 14.0142 18.3214 14.0142H15.1071C14.8978 14.0142 14.7045 13.9025 14.5999 13.7213C14.4953 13.5401 14.4953 13.3168 14.5999 13.1356C14.7045 12.9544 14.8978 12.8427 15.1071 12.8427H18.3214C18.4767 12.8427 18.6258 12.9045 18.7356 13.0143C18.8454 13.1241 18.9071 13.2731 18.9071 13.4285ZM18.9071 16.107C18.9071 16.2623 18.8454 16.4114 18.7356 16.5212C18.6258 16.631 18.4767 16.6927 18.3214 16.6927H16.1786C15.9693 16.6927 15.7759 16.5811 15.6713 16.3999C15.5667 16.2187 15.5667 15.9954 15.6713 15.8142C15.7759 15.633 15.9693 15.5213 16.1786 15.5213H18.3214C18.4767 15.5213 18.6258 15.583 18.7356 15.6928C18.8454 15.8027 18.9071 15.9517 18.9071 16.107ZM18.9071 18.7856C18.9071 18.9409 18.8454 19.09 18.7356 19.1998C18.6258 19.3096 18.4767 19.3713 18.3214 19.3713H16.1786C15.9693 19.3713 15.7759 19.2597 15.6713 19.0785C15.5667 18.8972 15.5667 18.6739 15.6713 18.4927C15.7759 18.3115 15.9693 18.1999 16.1786 18.1999H18.3214C18.4767 18.1999 18.6258 18.2616 18.7356 18.3714C18.8454 18.4812 18.9071 18.6303 18.9071 18.7856ZM8.01289 19.9871C8.61567 20.5899 9.43323 20.9286 10.2857 20.9286C11.1382 20.9286 11.9557 20.5899 12.5586 19.9871C13.1614 19.3843 13.5 18.5668 13.5 17.7143C13.5 16.8618 13.1613 16.0443 12.5586 15.4415C11.9558 14.8386 11.1382 14.5 10.2857 14.5C9.43323 14.5 8.6157 14.8387 8.01289 15.4415C7.41007 16.0442 7.07144 16.8618 7.07144 17.7143C7.07144 18.5668 7.4101 19.3843 8.01289 19.9871ZM15.486 11.1287C15.5864 11.0283 15.6429 10.892 15.6429 10.7499C15.6429 10.6078 15.5864 10.4715 15.486 10.3711C15.3855 10.2706 15.2492 10.2142 15.1071 10.2142H11.8929C11.7014 10.2142 11.5246 10.3163 11.4289 10.482C11.3332 10.6478 11.3332 10.852 11.4289 11.0177C11.5246 11.1835 11.7014 11.2856 11.8929 11.2856H15.1071C15.2492 11.2856 15.3855 11.2292 15.486 11.1287ZM18.7003 13.8073C18.8007 13.7068 18.8571 13.5705 18.8571 13.4285C18.8571 13.2864 18.8007 13.1501 18.7003 13.0496C18.5998 12.9492 18.4635 12.8927 18.3214 12.8927H15.1071C14.9157 12.8927 14.7388 12.9949 14.6432 13.1606C14.5475 13.3263 14.5475 13.5306 14.6432 13.6963C14.7388 13.8621 14.9157 13.9642 15.1071 13.9642H18.3214C18.4635 13.9642 18.5998 13.9077 18.7003 13.8073ZM18.7003 16.4859C18.8007 16.3854 18.8571 16.2491 18.8571 16.107C18.8571 15.965 18.8007 15.8286 18.7003 15.7282C18.5998 15.6278 18.4635 15.5713 18.3214 15.5713H16.1786C15.9871 15.5713 15.8103 15.6734 15.7146 15.8392C15.619 16.0049 15.619 16.2091 15.7146 16.3749C15.8103 16.5406 15.9871 16.6427 16.1786 16.6427H18.3214C18.4635 16.6427 18.5998 16.5863 18.7003 16.4859ZM18.7003 19.1644C18.8007 19.064 18.8571 18.9277 18.8571 18.7856C18.8571 18.6435 18.8007 18.5072 18.7003 18.4068C18.5998 18.3063 18.4635 18.2499 18.3214 18.2499H16.1786C15.9871 18.2499 15.8103 18.352 15.7146 18.5177C15.619 18.6835 15.619 18.8877 15.7146 19.0535C15.8103 19.2192 15.9871 19.3213 16.1786 19.3213H18.3214C18.4635 19.3213 18.5998 19.2649 18.7003 19.1644Z" fill="#AE1714"/>
<path d="M11.6559 16.8476L11.6463 16.8797L11.5139 17.3244L11.5085 17.3423H11.4899H11.1146C11.0959 17.4458 11.0653 17.5421 11.0224 17.631L10.9999 17.6202M11.6559 16.8476L10.9606 16.4697H11.4899H11.5084L11.5138 16.452L11.6489 16.0073L11.6587 15.975H11.625H9.69664H9.57745H9.55891H9.15363H9.13484L9.12962 15.993L8.97863 16.5147L8.96939 16.5466H9.00265H9.69664C9.8604 16.5466 9.98939 16.572 10.0853 16.6208C10.1817 16.67 10.2509 16.7376 10.2941 16.8237L10.2942 16.8239C10.2982 16.8317 10.302 16.8396 10.3056 16.8476H9.13509H9.11656L9.11117 16.8653L8.97608 17.31L8.96628 17.3423H9H10.3207C10.3111 17.3667 10.2998 17.3903 10.2868 17.4131L10.2868 17.4131L10.2866 17.4134C10.2398 17.4984 10.1686 17.5664 10.0717 17.6173L10.0834 17.6394M11.6559 16.8476H11.6224H11.1147C11.0896 16.7145 11.0426 16.5948 10.9732 16.4888L11.6559 16.8476ZM10.9999 17.6202L11.0225 17.6309C10.9477 17.7882 10.8265 17.9159 10.6603 18.0143C10.504 18.1068 10.3028 18.1696 10.0578 18.2037L11.209 19.4494L11.2156 19.4566V19.4663V19.5V19.525H11.1906H10.3827H10.3718L10.3644 19.5171L9.05854 18.118L9.05188 18.1109L9.05182 18.1011L9.04917 17.7165L9.04899 17.6913H9.07417H9.70459C9.85566 17.6913 9.97762 17.6661 10.0719 17.6172L10.0834 17.6394M10.9999 17.6202C10.9275 17.7724 10.81 17.8966 10.6476 17.9928C10.4914 18.0852 10.2879 18.148 10.037 18.1812L11.0891 17.3423C11.0708 17.4421 11.0411 17.5347 10.9999 17.6202ZM10.0834 17.6394C9.98449 17.6907 9.85822 17.7163 9.70459 17.7163H9.09917L10.3085 17.4255C10.2591 17.5152 10.184 17.5865 10.0834 17.6394Z" fill="#AE1714" stroke="#AE1714" stroke-width="0.05"/>
</svg>
