<svg width="28" height="28" viewBox="0 0 28 28" fill="none" xmlns="http://www.w3.org/2000/svg">
<rect width="28" height="28" rx="8" fill="#FBF0F0"/>
<path fill-rule="evenodd" clip-rule="evenodd" d="M14.2345 8L14.7081 8.47351L14.3175 8.86407L15.0246 9.57117L15.0336 9.5622L18.311 12.8396L18.3108 12.8398L19.0179 13.5469L19.3997 13.1651L19.8687 13.6341L17.2132 16.2897L16.7441 15.8207L17.1263 15.4385L16.4192 14.7314L16.4185 14.7321L13.1411 11.4547L13.1473 11.4485L12.4402 10.7413L12.0525 11.1291L11.579 10.6556L14.2345 8ZM15.7907 15.5185L15.3188 15.0466L9.99211 20.3733C9.30762 21.0578 8.19785 21.0578 7.51336 20.3733C6.82888 19.6888 6.82888 18.5791 7.51336 17.8946L12.8401 12.5679L12.3547 12.0825C12.0103 12.1914 11.6185 12.1093 11.3454 11.8362L10.8719 11.3627C10.4813 10.9722 10.4813 10.339 10.8719 9.94847L13.5274 7.29289C13.918 6.90237 14.5511 6.90237 14.9417 7.29289L15.4152 7.76641C15.6883 8.03954 15.7704 8.43138 15.6615 8.77587L19.0973 12.2117C19.4418 12.1027 19.8337 12.1848 20.1068 12.458L20.5758 12.927C20.9664 13.3175 20.9664 13.9507 20.5758 14.3412L17.9203 16.9968C17.5297 17.3873 16.8966 17.3873 16.5061 16.9968L16.037 16.5278C15.7639 16.2547 15.6818 15.8629 15.7907 15.5185ZM13.5472 13.275L14.6117 14.3395L9.285 19.6662C8.99104 19.9602 8.51443 19.9602 8.22047 19.6662C8.2021 19.6478 8.18487 19.6288 8.1688 19.609C7.92766 19.3134 7.94488 18.8773 8.22047 18.6017L13.5472 13.275ZM20.7985 19.9179H15.7985V20.9179H20.7985V19.9179Z" fill="#AE1714"/>
</svg>
