<svg width="32" height="32" viewBox="0 0 32 32" fill="none" xmlns="http://www.w3.org/2000/svg">
<rect x="0.5" y="0.5" width="31" height="31" rx="7.5" fill="white"/>
<path d="M20.079 23.0132V23.8948C20.079 24.1084 19.9076 24.2649 19.7088 24.2649L5.29899 24.2648C5.09755 24.2648 4.93359 24.1008 4.93359 23.8947V23.0131C4.93359 22.5259 5.32702 22.1323 5.81432 22.1323H19.1937C19.6507 22.1325 20.079 22.5171 20.079 23.0132Z" fill="#AE1714"/>
<path d="M18.7171 20.5858V21.4401H6.29218V20.5858C6.29218 20.1225 6.66906 19.749 7.12899 19.749H17.8802C18.3403 19.749 18.7172 20.1225 18.7172 20.5858H18.7171Z" fill="#AE1714"/>
<path d="M27.0408 17.3319L26.4703 18.6564C26.4011 18.819 26.2145 18.895 26.0483 18.826L19.0457 15.8209C18.8833 15.7517 18.8071 15.5615 18.8764 15.3989L18.911 15.3125L18.126 14.9771L17.9877 15.2953C17.9151 15.4612 17.7248 15.5374 17.559 15.4682L17.061 15.2537L16.7014 16.0905C16.5977 16.336 16.3106 16.4536 16.0616 16.3463L16.0097 16.3256L15.7227 17L16.02 17.128C16.3105 17.2524 16.4488 17.5949 16.3243 17.8853C16.2586 18.0305 16.1411 18.1411 16.0026 18.1965C15.8644 18.2519 15.7087 18.2519 15.5635 18.1896L10.7256 16.1147C10.4316 15.9903 10.2933 15.6478 10.4213 15.3539C10.4836 15.2086 10.6012 15.1014 10.7395 15.046C10.8777 14.9906 11.0334 14.9873 11.182 15.0496L11.4794 15.1776L11.7664 14.5033L11.7179 14.4826C11.4691 14.3753 11.3549 14.0883 11.4586 13.8428L13.1599 9.8798C13.2671 9.63429 13.5506 9.5166 13.7997 9.62382L13.8515 9.64459L14.142 8.97372L13.8446 8.84573C13.5507 8.72129 13.4159 8.37548 13.5403 8.08504C13.6027 7.93983 13.7202 7.83261 13.8585 7.77723C13.9968 7.72184 14.1524 7.71846 14.3012 7.78077L19.1391 9.85899C19.4295 9.98344 19.5678 10.3259 19.4433 10.6163C19.3776 10.7651 19.26 10.8687 19.1252 10.9241C18.9869 10.9795 18.8279 10.9829 18.6825 10.9206L18.3851 10.7926L18.0947 11.467L18.1465 11.4878C18.3954 11.595 18.5096 11.8821 18.4024 12.1309L18.0912 12.8572L18.5857 13.0716C18.7517 13.1409 18.8277 13.3345 18.7586 13.5003L18.6203 13.8185L19.4087 14.1573L19.4433 14.0743C19.5159 13.9118 19.7027 13.8357 19.8651 13.9049L26.8712 16.91C27.0338 16.9826 27.1099 17.1693 27.0407 17.3319L27.0408 17.3319Z" fill="#AE1714"/>
<rect x="0.5" y="0.5" width="31" height="31" rx="7.5" stroke="#FFEBD3"/>
</svg>
