<svg width="32" height="32" viewBox="0 0 32 32" fill="none" xmlns="http://www.w3.org/2000/svg">
<rect width="32" height="32" rx="8" fill="white"/>
<path d="M20.079 23.0133V23.8949C20.079 24.1085 19.9076 24.2651 19.7088 24.2651L5.29899 24.2649C5.09755 24.2649 4.93359 24.1009 4.93359 23.8948V23.0132C4.93359 22.526 5.32702 22.1324 5.81432 22.1324H19.1937C19.6507 22.1326 20.079 22.5173 20.079 23.0133Z" fill="#AE1714"/>
<path d="M18.717 20.5862V21.4404H6.29214V20.5862C6.29214 20.1229 6.66902 19.7494 7.12896 19.7494H17.8801C18.3403 19.7494 18.7171 20.1229 18.7171 20.5862H18.717Z" fill="#AE1714"/>
<path d="M27.0408 17.3321L26.4703 18.6566C26.4011 18.8192 26.2145 18.8952 26.0483 18.8261L19.0457 15.821C18.8833 15.7518 18.8071 15.5617 18.8764 15.3991L18.911 15.3126L18.126 14.9773L17.9877 15.2954C17.9151 15.4614 17.7248 15.5375 17.559 15.4683L17.061 15.2539L16.7014 16.0907C16.5977 16.3362 16.3106 16.4537 16.0616 16.3465L16.0097 16.3257L15.7227 17.0001L16.02 17.1281C16.3105 17.2526 16.4488 17.595 16.3243 17.8854C16.2586 18.0307 16.1411 18.1412 16.0026 18.1966C15.8644 18.252 15.7087 18.252 15.5635 18.1897L10.7256 16.1149C10.4316 15.9904 10.2933 15.648 10.4213 15.354C10.4836 15.2088 10.6012 15.1016 10.7395 15.0462C10.8777 14.9908 11.0334 14.9874 11.182 15.0497L11.4794 15.1777L11.7664 14.5035L11.7179 14.4827C11.4691 14.3755 11.3549 14.0884 11.4586 13.8429L13.1599 9.87994C13.2671 9.63443 13.5506 9.51674 13.7997 9.62396L13.8515 9.64473L14.142 8.97386L13.8446 8.84587C13.5507 8.72143 13.4159 8.37562 13.5403 8.08518C13.6027 7.93997 13.7202 7.83275 13.8585 7.77736C13.9968 7.72198 14.1524 7.7186 14.3012 7.78091L19.1391 9.85913C19.4295 9.98358 19.5678 10.326 19.4433 10.6165C19.3776 10.7652 19.26 10.8689 19.1252 10.9243C18.9869 10.9797 18.8279 10.983 18.6825 10.9207L18.3851 10.7927L18.0947 11.4671L18.1465 11.4879C18.3954 11.5951 18.5096 11.8822 18.4024 12.1311L18.0912 12.8573L18.5857 13.0718C18.7517 13.141 18.8277 13.3347 18.7586 13.5005L18.6203 13.8186L19.4087 14.1575L19.4433 14.0744C19.5159 13.912 19.7027 13.8358 19.8651 13.905L26.8712 16.9101C27.0338 16.9827 27.1099 17.1695 27.0407 17.3321L27.0408 17.3321Z" fill="#AE1714"/>
</svg>
