<svg width="27" height="28" viewBox="0 0 27 28" fill="none" xmlns="http://www.w3.org/2000/svg">
<rect width="26.8593" height="28" rx="8" fill="#FBF0F0"/>
<path fill-rule="evenodd" clip-rule="evenodd" d="M20.8593 14.659C20.8593 10.6862 17.6964 7.43142 13.7263 7.32076L13.7254 6.54236C13.726 6.13159 13.2762 5.86255 12.9119 6.07376C12.4199 6.35776 11.9286 6.64169 11.4372 6.92566C10.9822 7.18864 10.5271 7.45165 10.0712 7.71477C9.71021 7.9167 9.69891 8.44431 10.0662 8.65528C10.5062 8.90929 10.9459 9.16353 11.3857 9.41775C11.8834 9.7055 12.3811 9.99323 12.879 10.2806C13.2342 10.5207 13.7265 10.2701 13.7265 9.83065V8.67941C16.9464 8.78968 19.5018 11.4362 19.5018 14.6591C19.5018 17.9635 16.823 20.6424 13.5182 20.6424C10.7096 20.6424 8.27187 18.6893 7.67226 15.9433C7.48391 15.0714 6.15822 15.3574 6.34635 16.2296C7.08108 19.5951 10.0749 22 13.518 22C17.5727 22 20.8593 18.7132 20.8593 14.659ZM7.7125 13.9429C7.65112 13.472 7.21905 13.1404 6.74844 13.202C6.27771 13.2637 5.94573 13.6952 6.00737 14.1658C6.06923 14.6369 6.50082 14.9685 6.97166 14.9069C7.4425 14.845 7.7739 14.4137 7.7125 13.9429ZM8.31223 11.9742C8.41552 11.5108 8.12303 11.0514 7.6598 10.9482C7.19644 10.845 6.73665 11.1372 6.63384 11.6008C6.53067 12.0644 6.8228 12.5238 7.28603 12.6267C7.74987 12.7298 8.2093 12.4378 8.31223 11.9742ZM9.54901 10.3294C9.80449 9.92893 9.68682 9.39739 9.28652 9.14192C8.88634 8.88669 8.35456 9.0041 8.09933 9.40427C7.8441 9.80457 7.96153 10.3363 8.3617 10.5916C8.762 10.847 9.29354 10.7296 9.54901 10.3294ZM14.7145 14.1483L14.8889 13.4852H14.207C14.1769 13.2865 14.1159 13.1099 14.0241 12.9554C14.0125 12.9356 14.0004 12.9163 13.9877 12.8973H14.718L14.8957 12.2376H12.3835H12.2263H11.6965L11.4948 13.0409H12.3835C12.584 13.0409 12.7446 13.0762 12.8654 13.1468C12.9862 13.2152 13.0739 13.3109 13.1286 13.4339C13.136 13.4507 13.143 13.4678 13.1494 13.4852H11.6691L11.4914 14.1483H13.1701C13.1571 14.1919 13.141 14.234 13.1218 14.2747C13.0625 14.3978 12.9725 14.4958 12.8517 14.5687C12.731 14.6416 12.5772 14.6781 12.3903 14.6781H11.5871L11.5905 15.2625L13.238 17.2142H14.3591V17.1664L12.8757 15.3788C13.1992 15.3218 13.4601 15.2238 13.6584 15.0848C13.8566 14.9435 14.0013 14.7647 14.0925 14.5482C14.1439 14.4261 14.1808 14.2928 14.2032 14.1483H14.7145Z" fill="#AE1714"/>
</svg>
