<svg width="26" height="32" viewBox="0 0 26 32" fill="none" xmlns="http://www.w3.org/2000/svg">
<g id="refresh">
<rect x="1" y="1" width="24" height="30" rx="4" stroke="#999999"/>
<path id="Vector" d="M17.5 20.5C17.3674 20.5 17.2402 20.4473 17.1464 20.3536C17.0527 20.2598 17 20.1326 17 20V18H15C14.8674 18 14.7402 17.9473 14.6464 17.8536C14.5527 17.7598 14.5 17.6326 14.5 17.5C14.5 17.3674 14.5527 17.2402 14.6464 17.1464C14.7402 17.0527 14.8674 17 15 17H17.5C17.6326 17 17.7598 17.0527 17.8536 17.1464C17.9473 17.2402 18 17.3674 18 17.5V20C18 20.1326 17.9473 20.2598 17.8536 20.3536C17.7598 20.4473 17.6326 20.5 17.5 20.5ZM11 15H8.5C8.36739 15 8.24021 14.9473 8.14645 14.8536C8.05268 14.7598 8 14.6326 8 14.5V12C8 11.8674 8.05268 11.7402 8.14645 11.6464C8.24021 11.5527 8.36739 11.5 8.5 11.5C8.63261 11.5 8.75979 11.5527 8.85355 11.6464C8.94732 11.7402 9 11.8674 9 12V14H11C11.1326 14 11.2598 14.0527 11.3536 14.1464C11.4473 14.2402 11.5 14.3674 11.5 14.5C11.5 14.6326 11.4473 14.7598 11.3536 14.8536C11.2598 14.9473 11.1326 15 11 15Z" fill="white"/>
<path id="Vector_2" d="M13.0004 20.9999C11.7702 21.0001 10.5832 20.5469 9.66625 19.7268C8.74934 18.9068 8.16691 17.7775 8.03036 16.5549C8.02314 16.4893 8.02892 16.4228 8.04737 16.3594C8.06583 16.296 8.09659 16.2368 8.13792 16.1853C8.22137 16.0812 8.34275 16.0145 8.47536 15.9999C8.60797 15.9853 8.74094 16.024 8.84502 16.1075C8.9491 16.1909 9.01577 16.3123 9.03036 16.4449C9.12919 17.3463 9.53133 18.1873 10.1709 18.8301C10.8104 19.4729 11.6493 19.8794 12.5502 19.9828C13.451 20.0863 14.3603 19.8806 15.1289 19.3995C15.8974 18.9184 16.4798 18.1904 16.7804 17.3349C16.7991 17.2692 16.8311 17.2079 16.8745 17.155C16.9178 17.1022 16.9716 17.0587 17.0324 17.0274C17.0932 16.9961 17.1597 16.9776 17.228 16.9731C17.2962 16.9685 17.3646 16.978 17.4291 17.001C17.4935 17.024 17.5525 17.0599 17.6025 17.1066C17.6524 17.1532 17.6923 17.2097 17.7196 17.2724C17.7469 17.335 17.7611 17.4027 17.7612 17.4711C17.7613 17.5394 17.7474 17.6071 17.7204 17.6699C17.3748 18.6451 16.7353 19.4891 15.8899 20.0855C15.0445 20.6819 14.0349 21.0014 13.0004 20.9999ZM17.4704 15.9999C17.3468 16.0007 17.2272 15.9556 17.1349 15.8734C17.0426 15.7912 16.984 15.6778 16.9704 15.5549C16.8671 14.6579 16.4634 13.8222 15.8249 13.1837C15.1863 12.5453 14.3506 12.1416 13.4535 12.0385C12.5565 11.9353 11.6509 12.1387 10.8842 12.6156C10.1174 13.0925 9.53452 13.8147 9.23036 14.6649C9.21161 14.7307 9.17958 14.7919 9.13623 14.8448C9.09289 14.8977 9.03915 14.9411 8.97835 14.9724C8.91755 15.0037 8.85098 15.0222 8.78275 15.0267C8.71452 15.0313 8.64608 15.0218 8.58166 14.9988C8.51725 14.9759 8.45823 14.94 8.40825 14.8933C8.35827 14.8466 8.3184 14.7902 8.2911 14.7275C8.26379 14.6648 8.24964 14.5972 8.24951 14.5288C8.24939 14.4604 8.26329 14.3927 8.29036 14.3299C8.66682 13.262 9.39465 12.3534 10.3547 11.753C11.3148 11.1525 12.4503 10.8958 13.5753 11.0247C14.7003 11.1537 15.7482 11.6606 16.5475 12.4627C17.3469 13.2648 17.8503 14.3145 17.9754 15.4399C17.9894 15.5711 17.9511 15.7025 17.8686 15.8055C17.7862 15.9086 17.6664 15.9748 17.5354 15.9899L17.4704 15.9999Z" fill="white"/>
</g>
</svg>
