<svg width="6" height="6" viewBox="0 0 6 6" fill="none" xmlns="http://www.w3.org/2000/svg">
<path d="M5.17678 1.75712L5.35355 1.58035L5.17678 1.40357L4.77392 1.00071L4.59714 0.823937L4.42037 1.00071L3 2.42108L1.57963 1.00071L1.40286 0.823937L1.22608 1.00071L0.823223 1.40357L0.646447 1.58035L0.823223 1.75712L2.24359 3.17749L0.823223 4.59786L0.646447 4.77463L0.823223 4.95141L1.22608 5.35427L1.40286 5.53104L1.57963 5.35427L3 3.9339L4.42037 5.35427L4.59714 5.53104L4.77392 5.35427L5.17678 4.95141L5.35355 4.77463L5.17678 4.59786L3.75641 3.17749L5.17678 1.75712Z" fill="white" stroke="white" stroke-width="0.5"/>
</svg>
