<svg width="24" height="24" viewBox="0 0 24 24" fill="none" xmlns="http://www.w3.org/2000/svg">
<mask id="mask0_179_917" style="mask-type:alpha" maskUnits="userSpaceOnUse" x="0" y="0" width="24" height="24">
<rect width="24" height="24" fill="#D9D9D9"/>
</mask>
<g mask="url(#mask0_179_917)">
<circle cx="12" cy="12" r="8" fill="white"/>
<path d="M11.2895 16.5H12.7105V12.7105H16.5V11.2895H12.7105V7.5H11.2895V11.2895H7.5V12.7105H11.2895V16.5ZM12 21C10.7526 21 9.58042 20.7632 8.48337 20.2895C7.38568 19.8158 6.43421 19.1763 5.62895 18.3711C4.82368 17.5658 4.18421 16.6143 3.71053 15.5166C3.23684 14.4196 3 13.2474 3 12C3 10.7526 3.23684 9.58011 3.71053 8.48242C4.18421 7.38537 4.82368 6.43421 5.62895 5.62895C6.43421 4.82368 7.38568 4.18421 8.48337 3.71053C9.58042 3.23684 10.7526 3 12 3C13.2474 3 14.4199 3.23684 15.5176 3.71053C16.6146 4.18421 17.5658 4.82368 18.3711 5.62895C19.1763 6.43421 19.8158 7.38537 20.2895 8.48242C20.7632 9.58011 21 10.7526 21 12C21 13.2474 20.7632 14.4196 20.2895 15.5166C19.8158 16.6143 19.1763 17.5658 18.3711 18.3711C17.5658 19.1763 16.6146 19.8158 15.5176 20.2895C14.4199 20.7632 13.2474 21 12 21ZM12 19.5789C14.1 19.5789 15.8883 18.8409 17.3649 17.3649C18.8409 15.8883 19.5789 14.1 19.5789 12C19.5789 9.9 18.8409 8.11168 17.3649 6.63505C15.8883 5.15905 14.1 4.42105 12 4.42105C9.9 4.42105 8.112 5.15905 6.636 6.63505C5.15937 8.11168 4.42105 9.9 4.42105 12C4.42105 14.1 5.15937 15.8883 6.636 17.3649C8.112 18.8409 9.9 19.5789 12 19.5789Z" fill="#258629"/>
</g>
</svg>
