<svg width="16" height="16" viewBox="0 0 16 16" fill="none" xmlns="http://www.w3.org/2000/svg">
<path fill-rule="evenodd" clip-rule="evenodd" d="M11.0273 11.246C12.8004 10.9968 14.0555 9.31783 13.7957 7.46927C13.5359 5.62071 11.8666 4.35276 10.0936 4.60194C8.32053 4.85113 7.06544 6.53007 7.32524 8.37863C7.58504 10.2272 9.25429 11.4951 11.0273 11.246ZM11.1207 11.9104C13.2744 11.6077 14.7695 9.57753 14.4601 7.3759C14.1507 5.17426 12.1539 3.63486 10.0002 3.93754C7.8465 4.24022 6.35142 6.27037 6.66084 8.47201C6.97026 10.6736 8.96701 12.213 11.1207 11.9104Z" fill="#AE1714"/>
<path d="M4.12265 5.48471C4.08404 5.30351 4.19963 5.12531 4.38083 5.0867L10.2866 3.82816C10.4678 3.78955 10.646 3.90514 10.6846 4.08634V4.08634C10.7232 4.26755 10.6076 4.44574 10.4264 4.48436L4.52067 5.74289C4.33947 5.78151 4.16127 5.66592 4.12265 5.48471V5.48471Z" fill="#AE1714"/>
<path d="M4.86952 11.7718C4.86338 11.5866 5.00851 11.4315 5.19368 11.4254L11.2287 11.2252C11.4139 11.2191 11.569 11.3642 11.5751 11.5494V11.5494C11.5813 11.7345 11.4362 11.8896 11.251 11.8958L5.21592 12.096C5.03075 12.1021 4.87566 11.957 4.86952 11.7718V11.7718Z" fill="#AE1714"/>
<path d="M2.49005 7.63835C2.46426 7.45488 2.58614 7.28609 2.76227 7.26133L6.90814 6.67867C7.08427 6.65391 7.24796 6.78258 7.27374 6.96605V6.96605C7.29953 7.14952 7.17765 7.31832 7.00152 7.34307L2.85565 7.92573C2.67952 7.95049 2.51583 7.82182 2.49005 7.63835V7.63835Z" fill="#AE1714"/>
<path d="M2.49005 10.0538C2.46426 9.87029 2.59209 9.70065 2.77556 9.67487L7.09417 9.06793C7.27764 9.04214 7.44728 9.16997 7.47306 9.35344V9.35344C7.49885 9.53691 7.37102 9.70655 7.18755 9.73233L2.86894 10.3393C2.68547 10.3651 2.51583 10.2372 2.49005 10.0538V10.0538Z" fill="#AE1714"/>
</svg>
