<svg width="14" height="14" viewBox="0 0 14 14" fill="none" xmlns="http://www.w3.org/2000/svg">
<path d="M6.125 2.625L6.5625 1.75L7.4375 1.3125L6.5625 0.875L6.125 0L5.6875 0.875L4.8125 1.3125L5.6875 1.75L6.125 2.625ZM2.1875 4.375L2.91648 2.91676L4.375 2.1875L2.91648 1.45824L2.1875 0L1.45852 1.45824L0 2.1875L1.45852 2.91676L2.1875 4.375ZM11.8125 7.875L11.0835 9.33324L9.625 10.0625L11.0835 10.7918L11.8125 12.25L12.5415 10.7918L14 10.0625L12.5415 9.33324L11.8125 7.875ZM13.7435 2.5766L11.4234 0.256484C11.2528 0.0853125 11.0288 0 10.8049 0C10.5809 0 10.357 0.0853125 10.1861 0.256484L0.256484 10.1861C-0.0853125 10.5279 -0.0853125 11.0819 0.256484 11.4234L2.5766 13.7435C2.7475 13.9144 2.97145 13.9997 3.19512 13.9997C3.41906 13.9997 3.64301 13.9144 3.81391 13.7435L13.7435 3.81363C14.0853 3.47238 14.0853 2.91813 13.7435 2.5766ZM9.82871 5.56336L8.43664 4.17129L10.8046 1.80332L12.1967 3.19539L9.82871 5.56336Z" fill="white"/>
</svg>
