<svg width="12" height="12" viewBox="0 0 12 12" fill="none" xmlns="http://www.w3.org/2000/svg">
<path d="M2.52183 3.79444C2.49306 3.6594 2.59914 3.52235 2.75879 3.48833L7.96184 2.37954C8.12148 2.34552 8.27422 2.42742 8.303 2.56245C8.33178 2.69749 8.22569 2.83454 8.06605 2.86856L2.863 3.97735C2.70335 4.01137 2.55061 3.92948 2.52183 3.79444Z" fill="#AE1714"/>
<path d="M3.187 9.24986C3.18242 9.11187 3.31096 8.99561 3.4741 8.9902L8.79106 8.81384C8.95419 8.80842 9.09015 8.9159 9.09473 9.0539C9.09931 9.1919 8.97077 9.30815 8.80763 9.31356L3.49067 9.48993C3.32754 9.49534 3.19158 9.38786 3.187 9.24986Z" fill="#AE1714"/>
<path d="M1.08655 5.60999C1.06734 5.47327 1.17755 5.34475 1.33272 5.32294L4.98528 4.80961C5.14045 4.7878 5.28182 4.88096 5.30104 5.01769C5.32025 5.15441 5.21004 5.28293 5.05487 5.30474L1.40231 5.81807C1.24714 5.83988 1.10577 5.74672 1.08655 5.60999Z" fill="#AE1714"/>
<path d="M1.08655 7.73768C1.06734 7.60095 1.18279 7.4717 1.34443 7.44898L5.14918 6.91426C5.31082 6.89154 5.45743 6.98396 5.47664 7.12069C5.49586 7.25742 5.3804 7.38667 5.21876 7.40939L1.41402 7.94411C1.25238 7.96683 1.10577 7.87441 1.08655 7.73768Z" fill="#AE1714"/>
<path d="M7.18245 2.47778C6.28928 2.73382 5.53241 3.33042 5.07485 4.13909C4.61729 4.94775 4.49565 5.90378 4.73613 6.80126C4.97661 7.69874 5.55997 8.46587 6.36056 8.93741C7.16115 9.40896 8.11492 9.54719 9.01645 9.32235C9.90961 9.06631 10.6665 8.46971 11.124 7.66104C11.5816 6.85237 11.7032 5.89635 11.4628 4.99887C11.2223 4.10138 10.6389 3.33426 9.83834 2.86271C9.03775 2.39117 8.08398 2.25293 7.18245 2.47778ZM5.35969 6.63418C5.21341 6.08872 5.23338 5.51199 5.41705 4.97796C5.60071 4.44392 5.9397 3.97691 6.39054 3.6368L6.36284 3.65796L6.61233 3.5L6.70439 3.43338C6.80944 3.3754 6.91751 3.32307 7.02814 3.27659L8.4834 8.70771C8.36436 8.72278 8.2446 8.73149 8.12463 8.73381L7.75225 8.70138L7.75289 8.71149C7.19247 8.64292 6.66529 8.40857 6.23891 8.03848C5.81253 7.66838 5.50638 7.17939 5.35969 6.63418ZM10.8392 5.16595C10.9855 5.71141 10.9655 6.28813 10.7819 6.82217C10.5982 7.35621 10.2592 7.82322 9.80836 8.16332L9.80129 8.15234L9.49451 8.36675C9.38946 8.42472 9.28139 8.47706 9.17076 8.52353L7.7155 3.09241C7.83454 3.07735 7.9543 3.06864 8.07427 3.06632L8.19922 3.06632L8.33475 3.06632L8.44601 3.08863C9.00643 3.1572 9.53361 3.39155 9.95999 3.76165C10.3864 4.13175 10.6925 4.62074 10.8392 5.16595ZM9.06001 6.74516L9.40062 6.65129L9.58657 7.33559L9.25823 7.43653L9.06001 6.74516ZM8.69295 5.37527L9.03356 5.28141L9.21774 5.96877L8.87583 6.05779L8.69295 5.37527ZM8.33475 3.99005L8.67843 3.89796L8.85068 4.59889L8.50877 4.68791L8.33475 3.99005ZM7.13889 5.05497L6.79828 5.14883L6.61233 4.46454L6.95601 4.37245L7.13889 5.05497ZM7.50595 6.42485L7.16534 6.51871L6.98116 5.83135L7.32307 5.74233L7.50595 6.42485ZM7.87301 7.79473L7.52933 7.88682L7.34822 7.20123L7.69013 7.11221L7.87301 7.79473Z" fill="#AE1714"/>
</svg>
