<svg width="10" height="10" viewBox="0 0 10 10" fill="none" xmlns="http://www.w3.org/2000/svg">
<mask id="mask0_531_16132" style="mask-type:alpha" maskUnits="userSpaceOnUse" x="0" y="0" width="10" height="10">
<rect width="10" height="10" fill="#D9D9D9"/>
</mask>
<g mask="url(#mask0_531_16132)">
<path d="M4.56202 8.729C3.72868 8.618 3.03768 8.24834 2.48902 7.62C1.94035 6.99134 1.66602 6.25684 1.66602 5.4165C1.66602 4.97217 1.74935 4.54517 1.91602 4.1355C2.08268 3.72584 2.32235 3.36467 2.63502 3.052L3.26002 3.6665C3.02368 3.90284 2.84485 4.17034 2.72352 4.469C2.60185 4.76734 2.54102 5.08317 2.54102 5.4165C2.54102 6.02084 2.73035 6.55034 3.10902 7.005C3.48735 7.46 3.97168 7.743 4.56202 7.854V8.729ZM5.43702 8.729V7.854C6.02735 7.743 6.51168 7.46 6.89002 7.005C7.26868 6.55034 7.45802 6.02084 7.45802 5.4165C7.45802 4.72917 7.22185 4.14767 6.74952 3.672C6.27718 3.19634 5.70085 2.9585 5.02052 2.9585H5.01002L5.43702 3.3855L4.82252 4L3.34352 2.521L4.82252 1.0415L5.43702 1.656L5.01002 2.0835H5.02052C5.95085 2.0835 6.73552 2.40634 7.37452 3.052C8.01352 3.698 8.33302 4.48617 8.33302 5.4165C8.33302 6.25684 8.05868 6.99134 7.51002 7.62C6.96135 8.24834 6.27035 8.618 5.43702 8.729Z" fill="white"/>
</g>
</svg>
