<svg width="12" height="12" viewBox="0 0 12 12" fill="none" xmlns="http://www.w3.org/2000/svg">
<path d="M8.00529 3.99471C7.33697 3.34923 6.44186 2.99206 5.51275 3.00013C4.58365 3.00821 3.69488 3.38088 3.03788 4.03788C2.38088 4.69488 2.00821 5.58365 2.00013 6.51275C1.99206 7.44186 2.34923 8.33697 2.99471 9.00529C3.66303 9.65077 4.55814 10.0079 5.48725 9.99987C6.41635 9.99179 7.30512 9.61912 7.96212 8.96212C8.61912 8.30512 8.99179 7.41635 8.99987 6.48725C9.00794 5.55814 8.65077 4.66303 8.00529 3.99471ZM3.49435 4.49435C3.8936 4.09494 4.40305 3.82388 4.95737 3.71592C5.51169 3.60796 6.08563 3.66802 6.60559 3.88841L6.57341 3.875L6.83496 4.01208L6.93868 4.0585C7.04142 4.12049 7.14078 4.18791 7.23634 4.26048L3.26048 8.23634C3.18791 8.14078 3.12049 8.04142 3.0585 7.93868L2.90039 7.59998L2.89195 7.60559C2.67112 7.08596 2.61049 6.51224 2.71781 5.95793C2.82514 5.40363 3.09554 4.894 3.49435 4.49435ZM7.50565 8.50565C7.1064 8.90506 6.59695 9.17612 6.04263 9.28408C5.48831 9.39204 4.91437 9.33198 4.39441 9.11159L4.40039 9.09998L4.06132 8.9415C3.95858 8.87951 3.85922 8.81209 3.76366 8.73952L7.73952 4.76366C7.81209 4.85922 7.87951 4.95858 7.9415 5.06132L8.00398 5.16953L8.07174 5.28691L8.10805 5.39441C8.32888 5.91404 8.38951 6.48776 8.28219 7.04207C8.17486 7.59637 7.90446 8.106 7.50565 8.50565ZM5.24841 7.75441L5.5 8.00246L5.00036 8.50565L4.74877 8.27177L5.24841 7.75441ZM6.25123 6.75159L6.50282 6.99964L5.99964 7.50282L5.75159 7.25123L6.25123 6.75159ZM7.27177 5.74877L7.52336 6.00036L7.00246 6.5L6.75441 6.24841L7.27177 5.74877ZM5.75159 5.24559L5.5 4.99754L5.99964 4.49435L6.25123 4.74595L5.75159 5.24559ZM4.74877 6.24841L4.49718 6.00036L5.00036 5.49718L5.24841 5.74877L4.74877 6.24841ZM3.74595 7.25123L3.49435 6.99964L3.99754 6.5L4.24559 6.75159L3.74595 7.25123Z" fill="#AE1714"/>
<path fill-rule="evenodd" clip-rule="evenodd" d="M5.10847 1.28915C5.06608 1.35329 5.03911 1.45658 5.04858 1.51871C5.08047 1.72798 5.2768 1.79179 5.81052 1.76647C6.88035 1.71575 7.64399 1.9464 8.51265 2.58264C8.99909 2.93888 9.15701 3.09409 9.43425 3.48834C9.77793 3.97693 10.0025 4.48843 10.144 5.10489L10.2237 5.45231L10.0051 5.31238C9.75623 5.15314 9.56268 5.15873 9.45044 5.3285C9.29589 5.56217 9.3856 5.69715 9.989 6.13888C10.7416 6.68968 10.7449 6.68917 11.2916 5.93315C11.7339 5.32159 11.7713 5.1862 11.5443 5.01923C11.3636 4.88635 11.2225 4.92499 11.0234 5.1619L10.8518 5.36594L10.8005 5.02893C10.7722 4.84353 10.6852 4.51229 10.6071 4.29281C9.95595 2.46239 8.25577 1.19824 6.29737 1.08826C5.71352 1.05546 5.20636 1.14112 5.10847 1.28915Z" fill="#AE1714"/>
</svg>
