<svg width="12" height="12" viewBox="0 0 12 12" fill="none" xmlns="http://www.w3.org/2000/svg">
<path fill-rule="evenodd" clip-rule="evenodd" d="M2.44134 3.3385C3.01925 2.7806 3.30292 2.58919 3.72848 2.47012C3.84081 2.43867 4.06204 2.40993 4.22011 2.4063C4.49862 2.39982 4.5096 2.40472 4.57592 2.56555C4.67798 2.81302 5.01884 3.15786 5.3044 3.3026C5.52527 3.41452 5.72193 3.44365 6.08689 3.42818C6.37821 3.41585 6.42069 3.38723 6.54209 3.30544C6.5699 3.2867 6.60185 3.26518 6.64188 3.24042C6.90666 3.07668 7.27621 2.63917 7.27667 2.48896C7.27688 2.41595 7.32308 2.39961 7.52971 2.39961C7.85617 2.39961 8.28841 2.51337 8.59404 2.67971C8.81614 2.80061 9.93188 3.83181 9.93188 3.9162C9.93188 3.93627 9.58673 4.30046 9.1649 4.72545L8.39793 5.4982L8.40135 7.53567L8.40477 9.57309L5.90069 9.58631L3.39661 9.59959V7.52811V5.45669L2.62504 4.68134L1.85347 3.90604L2.44134 3.3385ZM1.20117 4.63651C1.20117 4.60623 1.28736 4.49263 1.39263 4.38404C1.49796 4.27549 1.60738 4.18665 1.63582 4.18665C1.66426 4.1866 2.01614 4.51576 2.4177 4.91809L3.14792 5.64958L2.92255 5.88817C2.79858 6.01938 2.6834 6.12676 2.66655 6.12676C2.61116 6.12676 1.20117 4.69288 1.20117 4.63651ZM8.68232 5.66724L9.42131 4.92692C9.82778 4.51974 10.1787 4.1866 10.2013 4.1866C10.2518 4.1866 10.6467 4.5851 10.6467 4.63605C10.6467 4.65637 10.3135 5.0055 9.90635 5.41196L9.16603 6.15096L8.92417 5.9091L8.68232 5.66724ZM6.0773 5.09546C6.00546 4.87435 5.69264 4.87435 5.6208 5.09546L5.53612 5.35608C5.50399 5.45496 5.41184 5.52191 5.30787 5.52191H5.03384C4.80135 5.52191 4.70468 5.81942 4.89277 5.95608L5.11446 6.11714C5.19858 6.17826 5.23378 6.28658 5.20165 6.38547L5.11697 6.64608C5.04513 6.8672 5.2982 7.05107 5.48629 6.91441L5.70798 6.75334C5.7921 6.69223 5.906 6.69223 5.99012 6.75334L6.21181 6.91441C6.3999 7.05107 6.65298 6.8672 6.58113 6.64608L6.49645 6.38547C6.46432 6.28658 6.49952 6.17826 6.58364 6.11714L6.80533 5.95608C6.99342 5.81942 6.89675 5.52191 6.66426 5.52191H6.39024C6.28626 5.52191 6.19411 5.45496 6.16198 5.35608L6.0773 5.09546Z" fill="white"/>
<path d="M3.6 5.22L3 5.79L1.5 4.272L2.1 3.66035L3.6 5.22Z" fill="white"/>
<path d="M8.09961 5.40023L8.69961 5.70023L10.2596 4.23L9.86961 3.84023L8.09961 5.40023Z" fill="white"/>
</svg>
