<svg width="11" height="10" viewBox="0 0 11 10" fill="none" xmlns="http://www.w3.org/2000/svg">
<path fill-rule="evenodd" clip-rule="evenodd" d="M4.58465 1.41893C4.31161 1.44297 4.01127 1.52931 3.75633 1.65703C3.14155 1.96507 2.69134 2.54273 2.54193 3.21526C2.51597 3.33207 2.47885 3.63391 2.47885 3.72814C2.47885 3.73079 2.31485 3.73297 2.11443 3.73297H1.75L2.29154 4.2745L2.83307 4.81604L3.3746 4.2745L3.91614 3.73297H3.51756H3.11899L3.12696 3.6342C3.17805 3.00073 3.52046 2.4847 4.06515 2.22029C4.2704 2.12065 4.40631 2.08589 4.73703 2.04847L4.79493 2.04191V1.72259V1.40326L4.75747 1.40513C4.73687 1.40616 4.65909 1.41237 4.58465 1.41893ZM6.17535 1.41797C5.99606 1.44855 5.8291 1.54037 5.69839 1.68026C5.60145 1.78401 5.53858 1.89919 5.50304 2.03809C5.47769 2.13726 5.47614 2.19137 5.47614 2.97684C5.47614 3.7623 5.47769 3.81642 5.50304 3.91559C5.53878 4.0553 5.60147 4.16961 5.70093 4.27645C5.80418 4.38735 5.91386 4.45874 6.0541 4.50629L6.16415 4.5436H7.36307H8.56199L8.66192 4.5071C8.87911 4.42776 9.04152 4.29045 9.13839 4.10425C9.23685 3.915 9.23595 3.9254 9.23617 2.97629C9.2364 2.03979 9.23771 2.05593 9.14655 1.86926C9.08883 1.75101 8.96402 1.6116 8.84915 1.53706C8.80479 1.50827 8.71896 1.46792 8.65842 1.44739L8.54836 1.41007L7.39713 1.408C6.76395 1.40687 6.21415 1.41135 6.17535 1.41797ZM8.40091 2.17427C8.42207 2.18995 8.45332 2.22328 8.47038 2.24833L8.50139 2.2939L8.49763 2.98959C8.494 3.66063 8.4929 3.68661 8.46662 3.72255C8.45163 3.74305 8.41419 3.77229 8.38343 3.78754C8.32852 3.81473 8.30938 3.81518 7.33878 3.81157C6.35978 3.80795 6.34968 3.80762 6.31161 3.7794C6.29045 3.76372 6.25934 3.73063 6.24249 3.70586L6.21184 3.66082V2.98095C6.21184 2.2492 6.21043 2.26459 6.28369 2.19615C6.30216 2.17892 6.33493 2.15945 6.35651 2.15292C6.3781 2.14638 6.83827 2.14209 7.3791 2.1434C8.35367 2.14574 8.36279 2.14603 8.40091 2.17427ZM7.64577 5.73605C7.35167 6.02803 7.11102 6.26849 7.11101 6.2704C7.11101 6.2723 7.28574 6.27214 7.4993 6.27004L7.88759 6.26623L7.88754 6.34497C7.88746 6.46066 7.85224 6.65827 7.80612 6.80182C7.6012 7.43963 7.0059 7.90848 6.34609 7.95173L6.21184 7.96053V8.27864V8.59676L6.3038 8.59651C6.68425 8.59548 7.17213 8.43553 7.5169 8.19881C8.11696 7.78682 8.47659 7.15104 8.52531 6.41613L8.53474 6.27386H8.89237C9.08907 6.27386 9.25001 6.27076 9.25 6.26698C9.25 6.25781 8.19592 5.20426 8.18726 5.20476C8.18355 5.20498 7.93987 5.44406 7.64577 5.73605ZM2.38348 5.48455C2.08913 5.56244 1.85236 5.80139 1.77741 6.0962C1.7467 6.217 1.7467 7.84298 1.77741 7.96378C1.81411 8.10817 1.88758 8.23761 1.99356 8.34462C2.10867 8.46086 2.2298 8.53195 2.37682 8.56955C2.47906 8.5957 2.52799 8.59674 3.63566 8.59655C4.92616 8.59634 4.87686 8.5997 5.07145 8.49846C5.22306 8.41959 5.34738 8.29358 5.42104 8.14414C5.51563 7.95223 5.51653 7.94166 5.51653 7.02999C5.51653 6.12018 5.5154 6.10681 5.42257 5.91963C5.32638 5.72569 5.16565 5.58295 4.95811 5.50722L4.85624 5.47004L3.65733 5.46738C2.64529 5.46513 2.44673 5.46782 2.38348 5.48455ZM4.68765 6.23215C4.78308 6.29701 4.78134 6.28202 4.78109 7.03205C4.78086 7.70269 4.78078 7.70452 4.75044 7.75746C4.68773 7.86685 4.75023 7.86106 3.6303 7.861C2.66169 7.86096 2.63435 7.86024 2.59112 7.83388C2.56669 7.81899 2.53454 7.78684 2.51965 7.76241C2.49357 7.71966 2.49257 7.69254 2.49257 7.02999C2.49257 6.36744 2.49357 6.34033 2.51965 6.29758C2.53454 6.27315 2.56669 6.241 2.59112 6.22611C2.63436 6.19973 2.66171 6.19902 3.63714 6.19898L4.63875 6.19893L4.68765 6.23215Z" fill="white"/>
</svg>
