<svg width="16" height="16" viewBox="0 0 16 16" fill="none" xmlns="http://www.w3.org/2000/svg">
<mask id="mask0_497_13976" style="mask-type:alpha" maskUnits="userSpaceOnUse" x="0" y="0" width="16" height="16">
<rect width="16" height="16" fill="#D9D9D9"/>
</mask>
<g mask="url(#mask0_497_13976)">
<path d="M14.6667 6.66667L14.25 5.75L13.3333 5.33333L14.25 4.91667L14.6667 4L15.0833 4.91667L16 5.33333L15.0833 5.75L14.6667 6.66667ZM12.6667 4L12.0333 2.63333L10.6667 2L12.0333 1.36667L12.6667 0L13.3 1.36667L14.6667 2L13.3 2.63333L12.6667 4ZM6 14.6667C5.63333 14.6667 5.31956 14.5362 5.05867 14.2753C4.79733 14.014 4.66667 13.7 4.66667 13.3333H7.33333C7.33333 13.7 7.20289 14.014 6.942 14.2753C6.68067 14.5362 6.36667 14.6667 6 14.6667ZM3.33333 12.6667V11.3333H8.66667V12.6667H3.33333ZM3.5 10.6667C2.73333 10.2111 2.12511 9.6 1.67533 8.83333C1.22511 8.06667 1 7.23333 1 6.33333C1 4.94444 1.48622 3.764 2.45867 2.792C3.43067 1.81956 4.61111 1.33333 6 1.33333C7.38889 1.33333 8.56933 1.81956 9.54133 2.792C10.5138 3.764 11 4.94444 11 6.33333C11 7.23333 10.7751 8.06667 10.3253 8.83333C9.87511 9.6 9.26667 10.2111 8.5 10.6667H3.5ZM3.9 9.33333H8.1C8.6 8.97778 8.986 8.53889 9.258 8.01667C9.53045 7.49444 9.66667 6.93333 9.66667 6.33333C9.66667 5.31111 9.31111 4.44444 8.6 3.73333C7.88889 3.02222 7.02222 2.66667 6 2.66667C4.97778 2.66667 4.11111 3.02222 3.4 3.73333C2.68889 4.44444 2.33333 5.31111 2.33333 6.33333C2.33333 6.93333 2.46956 7.49444 2.742 8.01667C3.014 8.53889 3.4 8.97778 3.9 9.33333Z" fill="white"/>
</g>
</svg>
