<svg width="22" height="22" viewBox="0 0 22 22" fill="none" xmlns="http://www.w3.org/2000/svg">
<g opacity="0.4" clip-path="url(#clip0_1066_356)">
<mask id="path-1-inside-1_1066_356" fill="white">
<path d="M4.4375 12.3336H0.9375V6.48452C0.9375 4.73852 1.97875 3.15839 3.58875 2.47308L7.0625 0.984619L8.03375 1.52151C9.88 2.54292 12.1244 2.54292 13.9706 1.52151L14.9419 0.984619L18.4156 2.46872C20.0256 3.15839 21.0669 4.73415 21.0669 6.48015V12.3336H17.5669"/>
</mask>
<path d="M0.9375 12.3336H0.1375V13.1336H0.9375V12.3336ZM3.58875 2.47308L3.90207 3.20918L3.90383 3.20842L3.58875 2.47308ZM7.0625 0.984619L7.44953 0.284472L7.10708 0.0951688L6.74742 0.249281L7.0625 0.984619ZM8.03375 1.52151L8.42102 0.821499L8.42078 0.821367L8.03375 1.52151ZM13.9706 1.52151L13.5836 0.821367L13.5834 0.821499L13.9706 1.52151ZM14.9419 0.984619L15.2562 0.248947L14.8968 0.0954235L14.5548 0.284472L14.9419 0.984619ZM18.4156 2.46872L18.7306 1.73335L18.7299 1.73305L18.4156 2.46872ZM21.0669 12.3336V13.1336H21.8669V12.3336H21.0669ZM4.4375 11.5336H0.9375V13.1336H4.4375V11.5336ZM1.7375 12.3336V6.48452H0.1375V12.3336H1.7375ZM1.7375 6.48452C1.7375 5.05855 2.58784 3.76858 3.90207 3.20917L3.27543 1.73699C1.36966 2.54819 0.1375 4.41849 0.1375 6.48452H1.7375ZM3.90383 3.20842L7.37758 1.71996L6.74742 0.249281L3.27367 1.73774L3.90383 3.20842ZM6.67547 1.68477L7.64672 2.22166L8.42078 0.821367L7.44953 0.284472L6.67547 1.68477ZM7.64648 2.22153C9.7337 3.37625 12.2707 3.37625 14.3579 2.22153L13.5834 0.821499C11.9781 1.70959 10.0263 1.70959 8.42102 0.821499L7.64648 2.22153ZM14.3577 2.22166L15.3289 1.68477L14.5548 0.284472L13.5836 0.821367L14.3577 2.22166ZM14.6276 1.72029L18.1013 3.20439L18.7299 1.73305L15.2562 0.248947L14.6276 1.72029ZM18.1006 3.20409C19.4175 3.7682 20.2669 5.05544 20.2669 6.48015H21.8669C21.8669 4.41286 20.6337 2.54857 18.7306 1.73335L18.1006 3.20409ZM20.2669 6.48015V12.3336H21.8669V6.48015H20.2669ZM21.0669 11.5336H17.5669V13.1336H21.0669V11.5336Z" fill="#9E9E9E" mask="url(#path-1-inside-1_1066_356)"/>
<mask id="path-3-inside-2_1066_356" fill="white">
<path d="M4.4375 7.53198V21.0635H17.5625V7.53198"/>
</mask>
<path d="M4.4375 21.0635H3.6375V21.8635H4.4375V21.0635ZM17.5625 21.0635V21.8635H18.3625V21.0635H17.5625ZM3.6375 7.53198V21.0635H5.2375V7.53198H3.6375ZM4.4375 21.8635H17.5625V20.2635H4.4375V21.8635ZM18.3625 21.0635V7.53198H16.7625V21.0635H18.3625Z" fill="#9E9E9E" mask="url(#path-3-inside-2_1066_356)"/>
</g>
<defs>
<clipPath id="clip0_1066_356">
<rect width="21" height="21" fill="white" transform="translate(0.5 0.5)"/>
</clipPath>
</defs>
</svg>
