<svg width="20" height="20" viewBox="0 0 20 20" fill="none" xmlns="http://www.w3.org/2000/svg">
<g clip-path="url(#clip0_576_1566)">
<path d="M10 19.375C15.1777 19.375 19.375 15.1777 19.375 10C19.375 4.82233 15.1777 0.625 10 0.625C4.82233 0.625 0.625 4.82233 0.625 10C0.625 15.1777 4.82233 19.375 10 19.375Z" fill="#FBC533"/>
<path d="M10.0001 0.625011C8.50865 0.622773 7.03843 0.977969 5.71255 1.66084C3.58339 3.37918 1.85547 6.07626 1.85547 9.02709C1.85547 15.3208 5.95589 18.4608 11.1338 18.4608C12.7812 18.4211 14.4004 18.0254 15.8805 17.3008C17.3912 16.0839 18.4871 14.4283 19.0173 12.5623C19.5475 10.6963 19.4858 8.71172 18.8407 6.88226C18.1955 5.0528 16.9988 3.4685 15.4154 2.3478C13.832 1.2271 11.9399 0.625172 10.0001 0.625011Z" fill="#FFD54B"/>
<path d="M9.5573 1.67676C7.86791 1.67676 6.21647 2.17772 4.8118 3.11629C3.40713 4.05486 2.31232 5.38888 1.66582 6.94967C1.01933 8.51046 0.850172 10.2279 1.17975 11.8848C1.50934 13.5417 2.32285 15.0637 3.51742 16.2583C4.712 17.4529 6.23398 18.2664 7.8909 18.596C9.54782 18.9255 11.2653 18.7564 12.826 18.1099C14.3868 17.4634 15.7209 16.3686 16.6594 14.9639C17.598 13.5592 18.099 11.9078 18.099 10.2184C18.0969 7.95368 17.1963 5.78229 15.5949 4.18087C13.9934 2.57945 11.822 1.67885 9.5573 1.67676ZM9.5573 18.1001C7.9981 18.1002 6.4739 17.6379 5.17744 16.7717C3.88097 15.9055 2.87048 14.6744 2.27375 13.2339C1.67701 11.7934 1.52084 10.2083 1.82497 8.67905C2.1291 7.14981 2.87989 5.74509 3.98237 4.64255C5.08486 3.54 6.48954 2.78914 8.01876 2.48493C9.54799 2.18072 11.1331 2.33681 12.5736 2.93347C14.0141 3.53013 15.2454 4.54055 16.1116 5.83697C16.9779 7.13339 17.4402 8.65756 17.4402 10.2168C17.4379 12.3068 16.6066 14.3105 15.1288 15.7884C13.651 17.2663 11.6473 18.0977 9.5573 18.1001Z" fill="#EF9C35"/>
<path d="M10.0121 1.45508C8.32275 1.45508 6.6713 1.95604 5.26663 2.89461C3.86196 3.83318 2.76716 5.16721 2.12066 6.72799C1.47416 8.28878 1.30501 10.0062 1.63459 11.6631C1.96417 13.3201 2.77769 14.842 3.97226 16.0366C5.16683 17.2312 6.68881 18.0447 8.34573 18.3743C10.0027 18.7039 11.7201 18.5347 13.2809 17.8882C14.8417 17.2417 16.1757 16.1469 17.1143 14.7422C18.0528 13.3376 18.5538 11.6861 18.5538 9.99674C18.5517 7.732 17.6511 5.56061 16.0497 3.95919C14.4483 2.35777 12.2769 1.45717 10.0121 1.45508ZM10.0121 17.8784C8.45294 17.8785 6.92873 17.4162 5.63227 16.55C4.33581 15.6839 3.32532 14.4527 2.72858 13.0122C2.13185 11.5717 1.97567 9.98662 2.2798 8.45737C2.58394 6.92813 3.33472 5.52341 4.43721 4.42087C5.53969 3.31832 6.94437 2.56747 8.4736 2.26325C10.0028 1.95904 11.5879 2.11513 13.0284 2.71179C14.469 3.30845 15.7002 4.31887 16.5664 5.61529C17.4327 6.91171 17.895 8.43588 17.895 9.99508C17.8927 12.0851 17.0615 14.0888 15.5837 15.5667C14.1058 17.0446 12.1021 17.876 10.0121 17.8784Z" fill="#FBBE3D"/>
<path d="M12.3258 7.24919H11.8767C11.7853 6.9858 11.657 6.73666 11.4958 6.50919H12.3258C12.4916 6.50919 12.6506 6.44334 12.7678 6.32613C12.885 6.20892 12.9508 6.04995 12.9508 5.88419C12.9508 5.71843 12.885 5.55946 12.7678 5.44225C12.6506 5.32504 12.4916 5.25919 12.3258 5.25919H9.14874C9.12582 5.25919 9.10374 5.25586 9.08041 5.25586H7.42749C7.26173 5.25586 7.10276 5.32171 6.98555 5.43892C6.86834 5.55613 6.80249 5.7151 6.80249 5.88086C6.80249 6.04662 6.86834 6.20559 6.98555 6.3228C7.10276 6.44001 7.26173 6.50586 7.42749 6.50586H9.08041C9.35808 6.50587 9.63157 6.57357 9.87718 6.7031C10.1228 6.83262 10.3331 7.02006 10.49 7.24919H7.45332C7.28756 7.24919 7.12859 7.31504 7.01138 7.43225C6.89417 7.54946 6.82832 7.70843 6.82832 7.87419C6.82832 8.03995 6.89417 8.19892 7.01138 8.31614C7.12859 8.43335 7.28756 8.49919 7.45332 8.49919H10.7637C10.6975 8.89806 10.492 9.26055 10.1838 9.52233C9.87568 9.78411 9.48475 9.92826 9.08041 9.92919H7.42749C7.30532 9.92924 7.18583 9.96509 7.08382 10.0323C6.9818 10.0995 6.90173 10.1952 6.8535 10.3074C6.80526 10.4197 6.79098 10.5436 6.81243 10.6639C6.83387 10.7842 6.8901 10.8955 6.97416 10.9842L10.3533 14.5471C10.4096 14.6075 10.4773 14.6562 10.5525 14.6903C10.6277 14.7244 10.7089 14.7433 10.7914 14.7459C10.8739 14.7484 10.9562 14.7346 11.0333 14.7052C11.1105 14.6758 11.181 14.6314 11.2409 14.5745C11.3008 14.5177 11.3489 14.4495 11.3823 14.374C11.4157 14.2985 11.4338 14.2171 11.4356 14.1346C11.4373 14.052 11.4227 13.9699 11.3926 13.8931C11.3625 13.8162 11.3174 13.746 11.26 13.6867L8.88166 11.1792H9.08041C9.81686 11.1784 10.5266 10.9035 11.0716 10.4081C11.6165 9.91269 11.9575 9.23223 12.0283 8.49919H12.3258C12.4916 8.49919 12.6506 8.43335 12.7678 8.31614C12.885 8.19892 12.9508 8.03995 12.9508 7.87419C12.9508 7.70843 12.885 7.54946 12.7678 7.43225C12.6506 7.31504 12.4916 7.24919 12.3258 7.24919Z" fill="#B5843A"/>
<path d="M10.8081 14.5346C10.7515 14.5348 10.6955 14.5233 10.6435 14.5009C10.5916 14.4786 10.5448 14.4458 10.506 14.4046L7.12601 10.8421C7.06995 10.7829 7.03246 10.7087 7.01818 10.6285C7.00389 10.5483 7.01343 10.4656 7.04562 10.3908C7.07781 10.3159 7.13124 10.2522 7.19929 10.2074C7.26734 10.1626 7.34703 10.1387 7.42851 10.1387H9.08142C9.53545 10.1392 9.97484 9.97816 10.321 9.68432C10.6671 9.39049 10.8974 8.98307 10.9706 8.53499L11.0123 8.29207H7.45476C7.34425 8.29207 7.23827 8.24817 7.16013 8.17003C7.08199 8.09189 7.03809 7.98591 7.03809 7.8754C7.03809 7.7649 7.08199 7.65892 7.16013 7.58078C7.23827 7.50264 7.34425 7.45874 7.45476 7.45874H10.8881L10.6627 7.13249C10.4864 6.87591 10.2504 6.666 9.97504 6.52084C9.69966 6.37567 9.39314 6.29959 9.08184 6.29915H7.42892C7.31842 6.29915 7.21244 6.25525 7.1343 6.17711C7.05615 6.09897 7.01226 5.99299 7.01226 5.88249C7.01226 5.77198 7.05615 5.666 7.1343 5.58786C7.21244 5.50972 7.31842 5.46582 7.42892 5.46582H9.08434L9.14976 5.46915H12.3268C12.4373 5.46915 12.5433 5.51305 12.6215 5.59119C12.6996 5.66933 12.7435 5.77531 12.7435 5.88582C12.7435 5.99633 12.6996 6.10231 12.6215 6.18045C12.5433 6.25859 12.4373 6.30249 12.3268 6.30249H11.0943L11.3273 6.63124C11.4772 6.84289 11.5966 7.07461 11.6818 7.31957L11.7302 7.45915H12.3273C12.4378 7.45915 12.5437 7.50305 12.6219 7.58119C12.7 7.65933 12.7439 7.76531 12.7439 7.87582C12.7439 7.98633 12.7 8.09231 12.6219 8.17045C12.5437 8.24859 12.4378 8.29249 12.3273 8.29249H11.8402L11.8223 8.48124C11.7598 9.16399 11.4438 9.79856 10.9365 10.2597C10.4292 10.7209 9.76744 10.9752 9.08184 10.9725H8.39851L11.1106 13.8333C11.1666 13.8924 11.2041 13.9667 11.2184 14.0469C11.2327 14.1271 11.2232 14.2098 11.191 14.2846C11.1588 14.3595 11.1054 14.4232 11.0373 14.468C10.9693 14.5128 10.8896 14.5367 10.8081 14.5367V14.5346Z" fill="#8F5F00"/>
<path d="M9.07542 10.1391H7.4225C7.36539 10.139 7.30888 10.1508 7.25649 10.1735C7.20409 10.1962 7.15693 10.2295 7.11792 10.2712C7.15063 10.263 7.18421 10.2588 7.21792 10.2587H8.86959C9.2501 10.2595 9.62215 10.1464 9.93792 9.93408C9.67048 10.0691 9.37502 10.1393 9.07542 10.1391Z" fill="#7A4818"/>
<path d="M7.14282 7.59156C7.17554 7.5835 7.20912 7.57944 7.24282 7.57947H10.6762L10.5928 7.45947H7.44699C7.38995 7.4595 7.33352 7.47123 7.2812 7.49395C7.22888 7.51667 7.18178 7.54989 7.14282 7.59156Z" fill="#7A4818"/>
<path d="M7.2175 5.58394H8.87375L8.93917 5.58727H12.1163C12.1975 5.58731 12.277 5.61111 12.3449 5.65573C12.4128 5.70035 12.4661 5.76385 12.4984 5.83841C12.5307 5.91297 12.5405 5.99535 12.5265 6.07539C12.5126 6.15544 12.4756 6.22967 12.42 6.28894C12.5189 6.2646 12.6054 6.2049 12.6632 6.12112C12.7211 6.03734 12.7463 5.93527 12.734 5.8342C12.7218 5.73312 12.6729 5.64003 12.5967 5.57251C12.5205 5.50498 12.4222 5.4677 12.3204 5.46769H9.14334L9.07792 5.46436H7.42209C7.36508 5.46433 7.30867 5.476 7.25635 5.49864C7.20403 5.52129 7.15691 5.55443 7.11792 5.59602C7.15054 5.58819 7.18396 5.58413 7.2175 5.58394Z" fill="#7A4818"/>
<path d="M12.3189 7.46057H11.7218L11.6735 7.32098C11.5882 7.07603 11.4689 6.8443 11.3189 6.63265L11.171 6.42432H10.8818L11.1148 6.75348C11.2643 6.96515 11.3835 7.1967 11.4689 7.4414L11.5177 7.5814H12.1148C12.196 7.58143 12.2754 7.6052 12.3433 7.64976C12.4111 7.69433 12.4645 7.75776 12.4968 7.83226C12.5291 7.90676 12.539 7.98908 12.5251 8.06909C12.5113 8.14911 12.4744 8.22334 12.4189 8.28265C12.5178 8.2583 12.6044 8.19857 12.6622 8.11474C12.7201 8.03092 12.7452 7.92881 12.7329 7.8277C12.7206 7.7266 12.6717 7.6335 12.5954 7.56601C12.5191 7.49852 12.4208 7.46131 12.3189 7.4614V7.46057Z" fill="#7A4818"/>
<path d="M11.6277 8.41357L11.6098 8.60191C11.5721 9.01586 11.4408 9.41582 11.2256 9.77149C11.0105 10.1272 10.7173 10.4292 10.3682 10.6548C10.771 10.4416 11.1143 10.1312 11.3669 9.75191C11.6196 9.37257 11.7737 8.93621 11.8152 8.48232L11.8215 8.41357H11.6277Z" fill="#7A4818"/>
<path d="M8.50444 11.0923H8.18652L10.8986 13.9519C10.9714 14.0292 11.0119 14.1313 11.0119 14.2375C11.0119 14.3437 10.9714 14.4458 10.8986 14.5231C10.9694 14.5057 11.0344 14.47 11.0871 14.4196C11.1398 14.3692 11.1784 14.3058 11.1989 14.2359C11.2195 14.1659 11.2213 14.0918 11.2042 14.0209C11.1871 13.95 11.1517 13.8848 11.1015 13.8319L8.50444 11.0923Z" fill="#7A4818"/>
</g>
<defs>
<clipPath id="clip0_576_1566">
<rect width="20" height="20" fill="white"/>
</clipPath>
</defs>
</svg>
