<svg xmlns="http://www.w3.org/2000/svg" xmlns:xlink="http://www.w3.org/1999/xlink" width="114.054" height="157.84" viewBox="0 0 114.054 157.84">
  <defs>
    <clipPath id="clip-path">
      <rect id="Rectangle_1687" data-name="Rectangle 1687" width="150.969" height="103.775" fill="#fff"/>
    </clipPath>
  </defs>
  <g id="Group_1077" data-name="Group 1077" transform="translate(10.531 157.84) rotate(-94)">
    <g id="Group_1076" data-name="Group 1076" clip-path="url(#clip-path)">
      <path id="Path_139" data-name="Path 139" d="M.094,4.291C1.477,10.206,3,16.13,4.787,21.883c.65,2.124,1.3,4.257,1.985,6.373L8.88,34.565c.718,2.1,1.41,4.235,2.164,6.315l2.243,6.292c.439,1.229.6,2.951,1.278,3.663,1.093,1.125,2.564,2.27,3.741,2.088.746-.114,2.746-3.136,1.816-4.049a20.767,20.767,0,0,1-3.614-6.557C15.9,40.8,15.3,39.134,14.714,37.406c-.292-.864-.58-1.745-.862-2.631s-.539-1.8-.8-2.7c-1.035-3.6-1.955-7.1-2.667-9.888C9.7,19.376,9.193,17.3,8.947,16.615l.449-.736a60.52,60.52,0,0,0,9.536,21.228c1.909,2.764,3.888,5.433,5.857,8.116,1.947,2.714,3.99,5.293,5.995,7.928,1,1.326,2.029,2.6,3.06,3.875l3.089,3.834c1.042,1.259,2.106,2.486,3.157,3.731s2.1,2.5,3.189,3.683l3.243,3.6c1.078,1.205,2.209,2.322,3.311,3.487,2.193,2.353,4.506,4.495,6.778,6.711A124.423,124.423,0,0,0,71.1,93.722a63.933,63.933,0,0,0,15.95,8.059,35.27,35.27,0,0,0,17.384,1.484,32.021,32.021,0,0,0,4.4-1.1c.727-.245,1.445-.56,2.168-.841.359-.15.724-.28,1.079-.449l1.06-.543,1.059-.548.53-.276.516-.322,2.059-1.312a43.675,43.675,0,0,0,3.932-3.127c.637-.566,1.28-1.12,1.877-1.76s1.225-1.229,1.814-1.882L126.66,89.1c.576-.675,1.1-1.415,1.658-2.122a75.973,75.973,0,0,0,5.95-9.3,123.39,123.39,0,0,0,10.338-26.924,230.447,230.447,0,0,0,5.651-29.013,52.15,52.15,0,0,0,.682-9.158c-.143-2.894-.858-5.426-2.679-6.769a100.6,100.6,0,0,0-3.7,13.9c-.957,4.809-1.732,9.8-2.591,14.844A203.592,203.592,0,0,1,137.1,56.591c-1.044,3.567-2.227,7.061-3.583,10.418a70.984,70.984,0,0,1-4.688,9.475l-1.174,1.9c-.4.621-.823,1.214-1.234,1.823l-.62.907-.651.86-1.307,1.71c-.923,1.051-1.8,2.182-2.78,3.128-.482.483-.947,1.005-1.444,1.455l-1.5,1.339a32.712,32.712,0,0,1-6.354,4.313l-.826.429-.414.214-.423.17-1.691.682a14.506,14.506,0,0,1-1.712.551c-.575.154-1.143.359-1.723.473a31.2,31.2,0,0,1-13.958-.282A50.791,50.791,0,0,1,77.58,90.591a86.493,86.493,0,0,1-12.587-8.9L63.47,80.435c-.5-.428-1-.889-1.493-1.331L59,76.424l-2.911-2.835-1.455-1.418c-.482-.48-.95-.989-1.426-1.482A271.166,271.166,0,0,1,31.524,44.9c-4.013-5.335-7.017-12.04-10.579-18.023-1.59-2.648-3.194-5.314-4.839-7.928,1.843,1.125,3.691,2.209,5.543,3.218a46.314,46.314,0,0,0,8.727,3.531c.706.2,2.192-1.252,2.376-2.256.172-.955-.74-2.507-1.369-3.538-.345-.569-1.077-.688-1.659-.892a50.149,50.149,0,0,1-6.65-2.816,55.946,55.946,0,0,1-6.4-3.789,59.977,59.977,0,0,1-6.063-4.91A57,57,0,0,1,4.961,1.357C4.615.927,4.2.424,3.779.35,2.759.169,1.471-.331.758.337.164.893-.176,3.138.094,4.291" transform="translate(0 0)" fill="#fff"/>
    </g>
  </g>
</svg>
