<svg xmlns="http://www.w3.org/2000/svg" xmlns:xlink="http://www.w3.org/1999/xlink" width="72.922" height="68.996" viewBox="0 0 72.922 68.996">
  <defs>
    <clipPath id="clip-path">
      <rect id="Rectangle_359" data-name="Rectangle 359" width="72.922" height="68.996" fill="#ca1515"/>
    </clipPath>
  </defs>
  <g id="Group_243" data-name="Group 243" transform="translate(0 0)">
    <g id="Group_242" data-name="Group 242" transform="translate(0 0)" clip-path="url(#clip-path)">
      <path id="Path_47" data-name="Path 47" d="M18.43,62.684a11.954,11.954,0,0,1-2.566-9.95l8.753-45.6a11.958,11.958,0,0,1,1.866-4.472L4.258,6.928A5.247,5.247,0,0,0,.094,13.07l9.983,52a5.245,5.245,0,0,0,6.141,4.163l10.965-2.1-1.5-.289a12.39,12.39,0,0,1-7.25-4.158" transform="translate(0 -0.335)" fill="#ca1515"/>
      <path id="Path_48" data-name="Path 48" d="M71.335,6.594,37.479.1a5.245,5.245,0,0,0-6.141,4.163l-9.983,52A5.245,5.245,0,0,0,25.518,62.4l33.856,6.5a5.247,5.247,0,0,0,6.142-4.164l9.983-52a5.246,5.246,0,0,0-4.164-6.141M61.566,38.35a6.054,6.054,0,0,1-2.6,4.04,5.887,5.887,0,0,1-4.58.949,6.833,6.833,0,0,1-3.94-2.384,11.1,11.1,0,0,1-2.078-4.2,17.059,17.059,0,0,0-.174,6.635,8.142,8.142,0,0,0,2.571,4.377,13.578,13.578,0,0,0,5.723,2.769l0,1.056L34.669,47.407l.388-.982q5.066.973,8.431-1.451t4.38-8.311A10.048,10.048,0,0,1,44.044,40a7.039,7.039,0,0,1-4.368.518,6.227,6.227,0,0,1-4.9-7.194,7.7,7.7,0,0,1,1.584-3.494,16.265,16.265,0,0,1,4.913-3.8,38.365,38.365,0,0,0,4.841-2.982,21,21,0,0,0,3.743-3.508A16.594,16.594,0,0,0,52.083,15.6a17.774,17.774,0,0,0,1.183,5.738,31.954,31.954,0,0,0,4.189,6.815,25.4,25.4,0,0,1,3.813,6.244,7.9,7.9,0,0,1,.3,3.955" transform="translate(-2.671 0)" fill="#ca1515"/>
    </g>
  </g>
</svg>
