<svg xmlns="http://www.w3.org/2000/svg" width="56.245" height="64.28" viewBox="0 0 56.245 64.28">
  <path id="Icon_awesome-address-book" data-name="Icon awesome-address-book" d="M1.507,20.088A1.511,1.511,0,0,1,0,18.581V13.559a1.511,1.511,0,0,1,1.507-1.507H4.018V6.026A6.028,6.028,0,0,1,10.044,0H50.219a6.028,6.028,0,0,1,6.026,6.026V58.254a6.028,6.028,0,0,1-6.026,6.026H10.044a6.028,6.028,0,0,1-6.026-6.026V52.228H1.507A1.511,1.511,0,0,1,0,50.721V45.7a1.511,1.511,0,0,1,1.507-1.507H4.018V36.158H1.507A1.511,1.511,0,0,1,0,34.651V29.629a1.511,1.511,0,0,1,1.507-1.507H4.018V20.088ZM30.131,16.07a8.035,8.035,0,1,0,8.035,8.035A8.042,8.042,0,0,0,30.131,16.07ZM16.07,45.8a2.633,2.633,0,0,0,2.812,2.411h22.5A2.633,2.633,0,0,0,44.193,45.8V43.389c0-3.992-3.779-7.232-8.437-7.232h-.628a12.932,12.932,0,0,1-9.994,0h-.628c-4.658,0-8.437,3.239-8.437,7.232Z" fill="#fff"/>
</svg>
