<?xml version="1.0" encoding="utf-8"?>
<!-- Generator: Adobe Illustrator 23.0.2, SVG Export Plug-In . SVG Version: 6.00 Build 0)  -->
<svg version="1.1" id="Layer_1" xmlns="http://www.w3.org/2000/svg" xmlns:xlink="http://www.w3.org/1999/xlink" x="0px" y="0px"
	 viewBox="0 0 155.2 185" style="enable-background:new 0 0 155.2 185;" xml:space="preserve">
<title>Asset 1</title>
<g>
	<g id="Layer_1-2">
		<path style="fill:#FFFFFF;" d="M59.1,86.4v-63l17.1-5l0,0h0.1l0,0l0,0l17.1,5v63H59.1z"/>
		<path style="fill:#FFFFFF;" d="M59.1,99.3v62.2c5.6,2.3,11.3,4.2,17.1,5.9l0,0h0.1l0,0l0,0c5.8-1.6,11.5-3.6,17.1-5.9V99.3H59.1z"/>
		<path style="fill:#FFFFFF;" d="M14.7,36.4v70.8c0,0-3.2,24,24.8,43.7V29.2L14.7,36.4z"/>
		<path style="fill:#FFFFFF;" d="M137.9,107.2V36.4L113,29.2V151C141.1,131.3,137.9,107.2,137.9,107.2z"/>
		<path style="fill:#FFFFFF;" d="M82.2,0L82.2,0 M77.6,4.9l72.9,21.3v83c-0.1,2.7-0.5,5.4-1.2,8.1c-1.7,6.8-4.4,13.3-8.1,19.3
			c-5.7,9.1-13.1,17.1-21.8,23.5c-11.3,8.3-25.4,15.1-41.8,20.1c-16.5-5-30.6-11.8-41.8-20.1c-8.7-6.3-16.1-14.3-21.8-23.4
			c-3.7-6-6.4-12.5-8.1-19.3c-0.7-2.6-1.1-5.4-1.2-8.1v-83L77.6,4.9 M77.7,0L77.7,0h-0.1l0,0h-0.1h-0.1v0.1L0,22.7v86.5
			c0,0-0.1,52.8,77.4,75.7v0.1h0.1h0.1l0,0h0.1h0.1v-0.1c77.5-22.9,77.4-75.7,77.4-75.7V22.7L77.7,0L77.7,0z"/>
	</g>
</g>
</svg>
